<svg width="57" height="64" viewBox="0 0 57 64" fill="none" xmlns="http://www.w3.org/2000/svg">
<path d="M4.53369 30.6382L31.6598 14.7184C32.4036 14.2817 32.7755 14.0635 33.0518 14.2226C33.328 14.3817 33.3226 14.8111 33.3118 15.6699L33.2414 21.2768C33.2166 23.2471 33.2042 24.2322 33.8347 24.7624C34.4651 25.2926 35.4347 25.1127 37.3741 24.7527L49.0902 22.5778C50.5052 22.3151 51.2127 22.1838 51.307 22.444C51.4014 22.7042 50.7786 23.0692 49.5331 23.7992L27.033 36.9859C25.7459 37.7403 25.1023 38.1175 24.5597 37.8735C24.017 37.6294 23.8796 36.901 23.605 35.4444L22.3183 28.6205C22.2905 28.4726 22.2765 28.3986 22.222 28.3608C22.1676 28.3229 22.0932 28.3354 21.9443 28.3604L4.74841 31.2464C4.07434 31.3595 3.73738 31.4161 3.69189 31.2875C3.64647 31.1589 3.94224 30.9853 4.53369 30.6382Z" fill="white"/>
<path d="M40.8608 39.9503C41.024 39.4096 41.0321 38.8808 40.8851 38.3639C40.738 37.8469 40.4435 37.3656 40.0017 36.92C39.5125 36.4266 38.9663 36.1002 38.3632 35.9407C37.7601 35.7813 37.1436 35.8007 36.5138 35.9991C35.884 36.1975 35.2967 36.5669 34.7517 37.1072C34.1907 37.6635 33.8083 38.2557 33.6046 38.8838C33.4088 39.5198 33.392 40.144 33.5542 40.7564C33.7165 41.3689 34.054 41.9337 34.5669 42.4509C35.1981 43.0875 35.8832 43.4418 36.6222 43.5139C37.3692 43.578 38.1104 43.3718 38.8457 42.8952L36.0052 40.0305L37.2915 38.755L41.7653 43.2669L40.2987 44.7211C39.6032 45.1898 38.8255 45.4875 37.9657 45.6142C37.1058 45.7408 36.2357 45.6647 35.3551 45.3858C34.4905 45.1069 33.7031 44.6093 32.993 43.8931C32.1961 43.0894 31.6544 42.1825 31.3681 41.1724C31.0976 40.1623 31.1016 39.1485 31.3799 38.1308C31.6661 37.1211 32.2219 36.2069 33.0474 35.3884C33.8729 34.5699 34.7917 34.0219 35.8038 33.7442C36.8318 33.4666 37.8457 33.4713 38.8454 33.7582C39.8611 34.0452 40.7634 34.5865 41.5524 35.3823C42.4835 36.3213 43.0598 37.3673 43.2815 38.5205C43.5111 39.6658 43.3394 40.783 42.7663 41.872L40.8608 39.9503Z" fill="white"/>
<path d="M42.0774 53.0789C41.3042 52.2991 40.7784 51.4002 40.5 50.3821C40.2217 49.364 40.2177 48.3422 40.4881 47.3166C40.7666 46.283 41.3185 45.3569 42.144 44.5384C42.9615 43.7279 43.8841 43.1917 44.912 42.93C45.9479 42.6604 46.9737 42.669 47.9894 42.956C49.005 43.2429 49.8995 43.7763 50.6727 44.5562C51.4539 45.3439 51.9797 46.2429 52.2501 47.253C52.5284 48.271 52.5245 49.2929 52.2381 50.3185C51.9677 51.3441 51.4238 52.2622 50.6063 53.0728C49.7808 53.8913 48.8501 54.4354 47.8142 54.705C46.7942 54.9747 45.7764 54.9661 44.7608 54.6791C43.7451 54.3921 42.8506 53.8587 42.0774 53.0789ZM43.5801 51.5889C44.0772 52.0902 44.6273 52.4206 45.2304 52.5801C45.8416 52.7316 46.466 52.7042 47.1038 52.4979C47.7416 52.2915 48.341 51.9102 48.902 51.354C49.463 50.7977 49.8454 50.2055 50.0491 49.5775C50.2608 48.9414 50.2895 48.3212 50.1351 47.7167C49.9808 47.1123 49.6551 46.5594 49.158 46.0581C48.6609 45.5567 48.1069 45.2224 47.4959 45.055C46.8927 44.8955 46.2723 44.919 45.6345 45.1253C45.0047 45.3237 44.4093 45.701 43.8483 46.2572C43.2873 46.8135 42.9009 47.4097 42.6892 48.0457C42.4775 48.6817 42.4448 49.3059 42.5911 49.9183C42.7533 50.5307 43.083 51.0876 43.5801 51.5889Z" fill="white"/>
</svg>
