<svg width="222" height="191" viewBox="0 0 222 191" fill="none" xmlns="http://www.w3.org/2000/svg">
<path fill-rule="evenodd" clip-rule="evenodd" d="M80.7305 48.5891L96.0081 50.4649L96.8895 62.8496L90.2541 73.0998L79.0033 70.6245L71.4671 60.882L80.7305 48.5891Z" fill="url(#paint0_linear)"/>
<path fill-rule="evenodd" clip-rule="evenodd" d="M93.5945 50.1691L96.007 50.4652L96.8884 62.8498L90.253 73.1L84.0746 54.6391L93.5945 50.1691Z" fill="url(#paint1_linear)"/>
<path fill-rule="evenodd" clip-rule="evenodd" d="M80.7316 48.5889L96.0093 50.4648L96.0831 50.6411L87.4627 65.0242L71.7349 60.5275L80.7316 48.5889Z" fill="url(#paint2_linear)" stroke="url(#paint3_linear)" stroke-linecap="square" stroke-linejoin="round"/>
<path d="M85.3187 57.9432L83.8083 61.2431L82.0455 58.6894L78.3657 59.0542L80.9156 56.1723L80.1517 53.0979L83.4904 53.8706L86.6981 51.6057L86.2117 54.9651L88.958 56.6397L85.3187 57.9432Z" fill="white"/>
<path fill-rule="evenodd" clip-rule="evenodd" d="M84.5636 58.7945L152.351 73.0008C152.677 73.0692 152.849 73.4293 152.698 73.7266L123.549 130.855C123.445 131.059 123.217 131.168 122.994 131.121L55.5857 116.994C55.2591 116.925 55.0868 116.565 55.2385 116.268L84.5636 58.7945Z" fill="url(#paint4_linear)"/>
<path fill-rule="evenodd" clip-rule="evenodd" d="M85.3972 60.7274L150.42 74.3543L122.272 129.517L57.2495 115.89L85.3972 60.7274Z" fill="url(#paint5_linear)"/>
<path fill-rule="evenodd" clip-rule="evenodd" d="M85.7386 61.5984C85.5927 61.2237 85.9208 60.8366 86.3144 60.919L149.774 74.2183C150.1 74.2867 150.272 74.6469 150.121 74.9441L130.789 112.83L102.554 104.785L85.7386 61.5984Z" fill="url(#paint6_linear)"/>
<path fill-rule="evenodd" clip-rule="evenodd" d="M96.731 63.1042L137.842 71.7168C137.801 71.9759 137.756 72.2352 137.705 72.4947C136.326 79.5923 131.527 85.1571 125.349 87.812C131.127 89.2503 135.744 93.0856 138.338 98.0363L130.787 112.829L102.553 104.785L101.197 101.306C102.976 95.6563 107.092 91.243 112.238 88.947C101.298 86.3804 94.2559 75.5974 96.419 64.4694C96.5087 64.0077 96.6129 63.5525 96.731 63.1042Z" fill="url(#paint7_linear)"/>
<path fill-rule="evenodd" clip-rule="evenodd" d="M102.136 103.008L135.253 109.949L123.345 133.287C123.241 133.49 123.014 133.599 122.79 133.552L90.0519 126.691L102.136 103.008Z" fill="url(#paint8_linear)"/>
<path fill-rule="evenodd" clip-rule="evenodd" d="M146.388 20.9864L150.421 74.3539L122.273 129.516L57.2508 115.89L24.3524 72.3863L146.388 20.9864Z" fill="url(#paint9_linear)"/>
<circle cx="117.06" cy="110.742" r="20.1883" transform="rotate(46 117.06 110.742)" fill="url(#paint10_linear)"/>
<circle cx="114.2" cy="109.088" r="20.1883" transform="rotate(46 114.2 109.088)" fill="url(#paint11_linear)"/>
<path fill-rule="evenodd" clip-rule="evenodd" d="M126.345 92.9621C119.789 95.7835 112.06 94.9594 106.212 90.543C112.687 87.7551 120.301 88.5223 126.122 92.7903L126.345 92.9621Z" fill="url(#paint12_linear)"/>
<path d="M108.082 121.896L109.297 119.206C111.027 119.86 112.578 119.945 113.952 119.459C115.325 118.974 116.358 117.966 117.049 116.434C117.42 115.614 117.62 114.833 117.65 114.092C117.68 113.35 117.569 112.621 117.315 111.904C117.062 111.187 116.68 110.466 116.169 109.742C115.658 109.017 114.969 108.174 114.102 107.211C113.236 106.249 112.701 105.462 112.497 104.853C112.293 104.243 112.346 103.596 112.656 102.911C112.989 102.172 113.451 101.693 114.04 101.474C114.629 101.254 115.288 101.326 116.016 101.69C116.754 102.058 117.221 102.62 117.419 103.376C117.617 104.131 117.471 105.05 116.983 106.131L120.835 108.054C121.628 106.297 121.83 104.644 121.44 103.097C121.05 101.55 120.12 100.271 118.649 99.2605L119.974 96.3274L117.841 95.263L116.535 98.1555C114.871 97.5239 113.34 97.4551 111.94 97.9493C110.541 98.4435 109.498 99.4521 108.81 100.975C108.411 101.858 108.207 102.689 108.198 103.469C108.189 104.248 108.328 105 108.617 105.724C108.905 106.447 109.318 107.167 109.855 107.882C110.392 108.597 111.061 109.381 111.863 110.234C112.665 111.087 113.169 111.833 113.376 112.472C113.583 113.111 113.519 113.8 113.185 114.539C112.864 115.25 112.382 115.703 111.739 115.896C111.097 116.088 110.385 115.99 109.603 115.599C108.661 115.129 108.068 114.483 107.825 113.66C107.581 112.837 107.702 111.89 108.186 110.817L104.334 108.895C103.5 110.742 103.331 112.472 103.828 114.083C104.325 115.695 105.439 117.055 107.171 118.162L105.962 120.839L108.082 121.896Z" fill="white" fill-opacity="0.6"/>
<circle cx="108.569" cy="73.5618" r="18.9266" transform="rotate(10 108.569 73.5618)" fill="url(#paint13_linear)"/>
<circle cx="105.49" cy="73.8829" r="18.9266" transform="rotate(10 105.49 73.8829)" fill="url(#paint14_linear)"/>
<path d="M107.906 86.9698L107.345 84.2602C109.017 83.8027 110.241 83.0117 111.015 81.887C111.789 80.7624 112.017 79.4285 111.697 77.8853C111.526 77.0593 111.248 76.3568 110.862 75.7779C110.476 75.199 109.99 74.7074 109.403 74.303C108.816 73.8985 108.128 73.5624 107.342 73.2946C106.555 73.0269 105.567 72.7667 104.38 72.5141C103.192 72.2615 102.353 71.9601 101.863 71.61C101.372 71.2599 101.056 70.7399 100.913 70.05C100.759 69.3057 100.845 68.6879 101.171 68.1969C101.497 67.7058 102.036 67.3975 102.789 67.2718C103.551 67.1446 104.216 67.3131 104.782 67.7774C105.348 68.2416 105.744 69.0184 105.97 70.1077L109.95 69.4434C109.584 67.6733 108.827 66.3089 107.678 65.3501C106.53 64.3914 105.12 63.9342 103.447 63.9785L102.836 61.0238L100.632 61.3916L101.235 64.3054C99.6248 64.7431 98.4253 65.5349 97.6364 66.6808C96.8475 67.8267 96.6118 69.1666 96.9292 70.7007C97.1133 71.5903 97.4167 72.3332 97.8393 72.9294C98.2619 73.5256 98.782 74.0187 99.3995 74.4087C100.017 74.7987 100.726 75.117 101.528 75.3635C102.33 75.6101 103.269 75.836 104.347 76.0411C105.425 76.2462 106.219 76.534 106.728 76.9046C107.237 77.2751 107.568 77.8325 107.722 78.5769C107.87 79.294 107.754 79.9027 107.373 80.4029C106.992 80.9032 106.398 81.2207 105.59 81.3556C104.616 81.518 103.81 81.3543 103.172 80.8645C102.534 80.3747 102.103 79.5897 101.88 78.5095L97.8988 79.1738C98.2839 81.0346 99.109 82.4394 100.374 83.3881C101.639 84.3367 103.234 84.7538 105.158 84.6394L105.715 87.3353L107.906 86.9698Z" fill="white" fill-opacity="0.4"/>
<ellipse cx="66.6913" cy="87.7984" rx="15.7488" ry="20.9985" transform="rotate(-176 66.6913 87.7984)" fill="url(#paint15_linear)"/>
<ellipse cx="61.7436" cy="87.7119" rx="15.7488" ry="20.9985" transform="rotate(-176 61.7436 87.7119)" fill="url(#paint16_linear)"/>
<g filter="url(#filter0_f)">
<circle cx="48.3422" cy="79.6715" r="2.21218" transform="rotate(-134 48.3422 79.6715)" fill="white"/>
</g>
<g filter="url(#filter1_f)">
<circle cx="48.3424" cy="79.6716" r="1.03235" transform="rotate(-134 48.3424 79.6716)" fill="white"/>
</g>
<g filter="url(#filter2_f)">
<circle cx="86.5981" cy="68.4198" r="2.21218" transform="rotate(-134 86.5981 68.4198)" fill="white"/>
</g>
<g filter="url(#filter3_f)">
<circle cx="86.5982" cy="68.4196" r="1.03235" transform="rotate(-134 86.5982 68.4196)" fill="white"/>
</g>
<path d="M60.5308 73.4357L60.0611 76.3593C58.3604 76.4085 56.9462 76.9086 55.8264 77.8679C54.7065 78.8271 54.0281 80.1551 53.8001 81.861C53.6828 82.779 53.7111 83.5995 53.8841 84.3213C54.0589 85.0449 54.3586 85.7052 54.7824 86.3012C55.2068 86.8979 55.7471 87.4489 56.4024 87.9534C57.057 88.4571 57.9002 89.0057 58.9307 89.5974C59.9584 90.1863 60.6464 90.7354 60.9971 91.2471C61.3483 91.7594 61.4902 92.4148 61.4244 93.2148C61.356 94.0807 61.1029 94.7453 60.6633 95.2067C60.2237 95.6682 59.6351 95.8682 58.896 95.8052C58.1458 95.7394 57.5685 95.3692 57.1665 94.6972C56.7654 94.0263 56.6167 93.059 56.7239 91.7991L52.7553 91.4029C52.5796 93.4486 52.9093 95.1752 53.7361 96.5742C54.5672 97.9775 55.7859 98.8957 57.3827 99.3186L57.1974 102.845L59.3735 103.043L59.5519 99.5605C61.1717 99.4988 62.4935 98.9187 63.5246 97.8275C64.5555 96.7362 65.1339 95.2904 65.2681 93.4988C65.3511 92.4653 65.2872 91.5687 65.0749 90.8077C64.8646 90.0486 64.5368 89.3807 64.0905 88.8027C63.6446 88.2252 63.093 87.7032 62.4348 87.2357C61.7757 86.7673 60.982 86.285 60.0525 85.7878C59.1205 85.2881 58.4771 84.7723 58.1244 84.2428C57.7722 83.7138 57.6474 83.034 57.7515 82.2051C57.8543 81.4092 58.168 80.7987 58.6906 80.3718C59.213 79.9447 59.869 79.7631 60.657 79.8253C61.6031 79.897 62.2829 80.2677 62.6998 80.9407C63.1176 81.6148 63.2514 82.5538 63.1046 83.7612L66.9179 83.9966C67.1697 81.9155 66.8928 80.2343 66.0777 78.9431C65.2663 77.6557 63.9749 76.8473 62.1918 76.5056L62.6555 73.593L60.5308 73.4357Z" fill="white" fill-opacity="0.4"/>
<path fill-rule="evenodd" clip-rule="evenodd" d="M135.105 159.949L152.807 73.2424L150.346 74.3389L150.42 74.3544L122.272 129.517L57.2497 115.89L57.2945 115.802L55.1504 116.758L132.106 161.297C133.304 161.991 134.829 161.305 135.105 159.949Z" fill="url(#paint17_linear)"/>
<path fill-rule="evenodd" clip-rule="evenodd" d="M152.809 73.2421L135.045 161.722C134.878 162.05 134.598 162.292 134.271 162.416L123.187 131.748L152.809 73.2421Z" fill="url(#paint18_linear)"/>
<path fill-rule="evenodd" clip-rule="evenodd" d="M78.7907 28.2657C87.1606 31.6473 92.8763 38.1517 93.8147 44.4925L95.2043 45.0435L93.3281 50.0211C93.2727 50.1787 93.2135 50.3356 93.1505 50.4915C89.9999 58.2894 78.4628 60.9814 67.3816 56.5043C56.4112 52.072 50.0003 42.2749 52.9302 34.5131L53.0251 34.2704L54.9914 29.0918L56.4819 29.6824C61.5283 25.6149 70.2936 24.8326 78.7907 28.2657Z" fill="url(#paint19_linear)"/>
<ellipse cx="75.0121" cy="37.2874" rx="21.6401" ry="15.2282" transform="rotate(22 75.0121 37.2874)" fill="url(#paint20_linear)"/>
<g filter="url(#filter4_f)">
<circle cx="59.1576" cy="24.1581" r="2.21218" transform="rotate(-134 59.1576 24.1581)" fill="white"/>
</g>
<g filter="url(#filter5_f)">
<circle cx="59.1558" cy="24.1577" r="1.03235" transform="rotate(-134 59.1558 24.1577)" fill="white"/>
</g>
<path d="M83.1158 47.7358L81.7334 45.3144C83.2747 44.7157 84.2642 43.8598 84.7018 42.7466C85.1394 41.6334 84.9646 40.3873 84.1773 39.0083C83.7559 38.2701 83.2639 37.6567 82.7014 37.1679C82.1389 36.6792 81.5016 36.2811 80.7896 35.9738C80.0775 35.6665 79.2858 35.4325 78.4145 35.2717C77.5432 35.111 76.473 34.9788 75.2039 34.875C73.9348 34.7712 73.001 34.5853 72.4026 34.3173C71.8041 34.0493 71.3289 33.6071 70.9769 32.9906C70.5972 32.3254 70.4967 31.7505 70.6756 31.2657C70.8544 30.781 71.303 30.4406 72.0213 30.2446C72.7483 30.0463 73.4664 30.1293 74.1756 30.4936C74.8848 30.858 75.5172 31.5269 76.073 32.5003L79.8703 31.4643C78.9672 29.8825 77.7941 28.7142 76.3508 27.9595C74.9075 27.2048 73.3527 26.9375 71.6864 27.1577L70.179 24.5173L68.0766 25.0909L69.5632 27.6948C68.0786 28.2686 67.1133 29.1226 66.6675 30.2568C66.2216 31.391 66.39 32.6435 67.1726 34.0144C67.6265 34.8094 68.1558 35.4572 68.7605 35.9579C69.3653 36.4585 70.0367 36.8543 70.7747 37.1451C71.5128 37.436 72.3216 37.6513 73.2012 37.791C74.0808 37.9307 75.0929 38.0366 76.2376 38.1087C77.3823 38.1808 78.2662 38.3592 78.8894 38.6439C79.5126 38.9286 80.0141 39.4035 80.3938 40.0687C80.7597 40.7095 80.8269 41.2795 80.5955 41.7785C80.3641 42.2776 79.863 42.6323 79.0921 42.8426C78.1636 43.096 77.3048 43.0326 76.5158 42.6525C75.7268 42.2724 75.0568 41.5998 74.5057 40.6344L70.7083 41.6705C71.6577 43.3334 72.9111 44.5313 74.4685 45.2643C76.0259 45.9972 77.7535 46.208 79.6511 45.8965L81.0266 48.3057L83.1158 47.7358Z" fill="white" fill-opacity="0.4"/>
<ellipse cx="111.009" cy="108.211" rx="96.765" ry="52.8832" transform="rotate(-20 111.009 108.211)" stroke="url(#paint21_linear)" stroke-width="3.16506" stroke-linecap="square" stroke-linejoin="round"/>
<g filter="url(#filter6_f)">
<circle cx="190.03" cy="117.789" r="3.09706" fill="white"/>
</g>
<g filter="url(#filter7_f)">
<circle cx="190.031" cy="117.789" r="1.44529" fill="white"/>
</g>
<path fill-rule="evenodd" clip-rule="evenodd" d="M125.697 143.397L146.916 146.002L148.14 163.203L138.924 177.44L123.298 174.002L112.831 160.471L125.697 143.397Z" fill="url(#paint22_linear)"/>
<path fill-rule="evenodd" clip-rule="evenodd" d="M143.565 145.59L146.916 146.001L148.14 163.202L138.924 177.438L130.343 151.798L143.565 145.59Z" fill="url(#paint23_linear)"/>
<path fill-rule="evenodd" clip-rule="evenodd" d="M125.696 143.396L146.915 146.001L147.018 146.246L135.045 166.222L113.201 159.977L125.696 143.396Z" fill="url(#paint24_linear)" stroke="url(#paint25_linear)" stroke-linecap="square" stroke-linejoin="round"/>
<path d="M132.069 156.387L129.971 160.97L127.523 157.423L122.412 157.93L125.954 153.928L124.893 149.658L129.53 150.731L133.985 147.585L133.309 152.251L137.124 154.577L132.069 156.387Z" fill="white" fill-opacity="0.7"/>
<path fill-rule="evenodd" clip-rule="evenodd" d="M15.3386 125.344L34.4357 127.688L35.5374 143.169L27.2432 155.982L13.1797 152.888L3.75942 140.71L15.3386 125.344Z" fill="url(#paint26_linear)"/>
<path fill-rule="evenodd" clip-rule="evenodd" d="M31.4189 127.317L34.4346 127.687L35.5363 143.168L27.2421 155.981L19.519 132.904L31.4189 127.317Z" fill="url(#paint27_linear)"/>
<path fill-rule="evenodd" clip-rule="evenodd" d="M15.3374 125.343L34.4344 127.687L34.5268 127.908L23.7512 145.887L4.09143 140.266L15.3374 125.343Z" fill="url(#paint28_linear)" stroke="url(#paint29_linear)" stroke-linecap="square" stroke-linejoin="round"/>
<path d="M21.0736 137.036L19.1856 141.161L16.9822 137.969L12.3824 138.425L15.5697 134.822L14.615 130.979L18.7883 131.945L22.7979 129.114L22.1899 133.313L25.6228 135.406L21.0736 137.036Z" fill="white" fill-opacity="0.7"/>
<path fill-rule="evenodd" clip-rule="evenodd" d="M193.116 51.0816L212.214 53.4265L213.315 68.9072L205.021 81.72L190.957 78.6259L181.537 66.4478L193.116 51.0816Z" fill="url(#paint30_linear)"/>
<path fill-rule="evenodd" clip-rule="evenodd" d="M209.195 53.0562L212.211 53.4263L213.313 68.907L205.018 81.7198L197.295 58.6437L209.195 53.0562Z" fill="url(#paint31_linear)"/>
<path fill-rule="evenodd" clip-rule="evenodd" d="M193.116 51.0819L212.213 53.4267L212.305 53.6471L201.53 71.6259L181.87 66.0051L193.116 51.0819Z" fill="url(#paint32_linear)" stroke="url(#paint33_linear)" stroke-linecap="square" stroke-linejoin="round"/>
<path d="M198.852 62.7747L196.964 66.8996L194.76 63.7073L190.161 64.1634L193.348 60.5611L192.393 56.718L196.567 57.6839L200.576 54.8527L199.968 59.052L203.401 61.1453L198.852 62.7747Z" fill="white" fill-opacity="0.7"/>
<defs>
<filter id="filter0_f" x="37.1084" y="68.438" width="22.4672" height="22.4672" filterUnits="userSpaceOnUse" color-interpolation-filters="sRGB">
<feFlood flood-opacity="0" result="BackgroundImageFix"/>
<feBlend mode="normal" in="SourceGraphic" in2="BackgroundImageFix" result="shape"/>
<feGaussianBlur stdDeviation="4.51072" result="effect1_foregroundBlur"/>
</filter>
<filter id="filter1_f" x="40.4272" y="71.7564" width="15.8303" height="15.8303" filterUnits="userSpaceOnUse" color-interpolation-filters="sRGB">
<feFlood flood-opacity="0" result="BackgroundImageFix"/>
<feBlend mode="normal" in="SourceGraphic" in2="BackgroundImageFix" result="shape"/>
<feGaussianBlur stdDeviation="3.44141" result="effect1_foregroundBlur"/>
</filter>
<filter id="filter2_f" x="75.3643" y="57.1863" width="22.4672" height="22.4672" filterUnits="userSpaceOnUse" color-interpolation-filters="sRGB">
<feFlood flood-opacity="0" result="BackgroundImageFix"/>
<feBlend mode="normal" in="SourceGraphic" in2="BackgroundImageFix" result="shape"/>
<feGaussianBlur stdDeviation="4.51072" result="effect1_foregroundBlur"/>
</filter>
<filter id="filter3_f" x="78.6831" y="60.5044" width="15.8303" height="15.8303" filterUnits="userSpaceOnUse" color-interpolation-filters="sRGB">
<feFlood flood-opacity="0" result="BackgroundImageFix"/>
<feBlend mode="normal" in="SourceGraphic" in2="BackgroundImageFix" result="shape"/>
<feGaussianBlur stdDeviation="3.44141" result="effect1_foregroundBlur"/>
</filter>
<filter id="filter4_f" x="47.9239" y="12.9246" width="22.4672" height="22.4672" filterUnits="userSpaceOnUse" color-interpolation-filters="sRGB">
<feFlood flood-opacity="0" result="BackgroundImageFix"/>
<feBlend mode="normal" in="SourceGraphic" in2="BackgroundImageFix" result="shape"/>
<feGaussianBlur stdDeviation="4.51072" result="effect1_foregroundBlur"/>
</filter>
<filter id="filter5_f" x="51.2407" y="16.2424" width="15.8303" height="15.8303" filterUnits="userSpaceOnUse" color-interpolation-filters="sRGB">
<feFlood flood-opacity="0" result="BackgroundImageFix"/>
<feBlend mode="normal" in="SourceGraphic" in2="BackgroundImageFix" result="shape"/>
<feGaussianBlur stdDeviation="3.44141" result="effect1_foregroundBlur"/>
</filter>
<filter id="filter6_f" x="174.303" y="102.062" width="31.4541" height="31.4541" filterUnits="userSpaceOnUse" color-interpolation-filters="sRGB">
<feFlood flood-opacity="0" result="BackgroundImageFix"/>
<feBlend mode="normal" in="SourceGraphic" in2="BackgroundImageFix" result="shape"/>
<feGaussianBlur stdDeviation="6.31501" result="effect1_foregroundBlur"/>
</filter>
<filter id="filter7_f" x="178.95" y="106.708" width="22.1625" height="22.1625" filterUnits="userSpaceOnUse" color-interpolation-filters="sRGB">
<feFlood flood-opacity="0" result="BackgroundImageFix"/>
<feBlend mode="normal" in="SourceGraphic" in2="BackgroundImageFix" result="shape"/>
<feGaussianBlur stdDeviation="4.81797" result="effect1_foregroundBlur"/>
</filter>
<linearGradient id="paint0_linear" x1="82.407" y1="72.4226" x2="90.6865" y2="70.6299" gradientUnits="userSpaceOnUse">
<stop stop-color="#16E0F4"/>
<stop offset="1" stop-color="#4A90E1"/>
</linearGradient>
<linearGradient id="paint1_linear" x1="74.5627" y1="98.3566" x2="112.818" y2="81.5459" gradientUnits="userSpaceOnUse">
<stop stop-color="#3EE2F3"/>
<stop offset="1" stop-color="#07387D"/>
</linearGradient>
<linearGradient id="paint2_linear" x1="74.3579" y1="55.1678" x2="107.508" y2="57.0851" gradientUnits="userSpaceOnUse">
<stop stop-color="#16E0F4"/>
<stop offset="1" stop-color="#4A90E1"/>
</linearGradient>
<linearGradient id="paint3_linear" x1="84.4608" y1="42.497" x2="80.1583" y2="66.0073" gradientUnits="userSpaceOnUse">
<stop stop-color="white"/>
<stop offset="1" stop-color="white" stop-opacity="0"/>
</linearGradient>
<linearGradient id="paint4_linear" x1="74.4494" y1="112.586" x2="99.2884" y2="124.451" gradientUnits="userSpaceOnUse">
<stop stop-color="#16E0F4"/>
<stop offset="1" stop-color="#4A90E1"/>
</linearGradient>
<linearGradient id="paint5_linear" x1="8.91183" y1="75.3978" x2="35.2611" y2="150.358" gradientUnits="userSpaceOnUse">
<stop stop-color="#3EE2F3"/>
<stop offset="1" stop-color="#07387D"/>
</linearGradient>
<linearGradient id="paint6_linear" x1="19.5855" y1="94.8166" x2="69.7497" y2="173.432" gradientUnits="userSpaceOnUse">
<stop stop-color="#3EE2F3"/>
<stop offset="1" stop-color="#07387D"/>
</linearGradient>
<linearGradient id="paint7_linear" x1="97.3226" y1="38.1253" x2="74.9141" y2="78.1433" gradientUnits="userSpaceOnUse">
<stop stop-opacity="0.037275"/>
<stop offset="1" stop-opacity="0.249507"/>
</linearGradient>
<linearGradient id="paint8_linear" x1="74.4896" y1="29.2927" x2="58.619" y2="110.94" gradientUnits="userSpaceOnUse">
<stop stop-color="#3EE2F3"/>
<stop offset="1" stop-color="#07387D"/>
</linearGradient>
<linearGradient id="paint9_linear" x1="39.0898" y1="61.6782" x2="55.2593" y2="123.209" gradientUnits="userSpaceOnUse">
<stop stop-color="white" stop-opacity="0.01"/>
<stop offset="1" stop-color="white" stop-opacity="0.27496"/>
</linearGradient>
<linearGradient id="paint10_linear" x1="80.6134" y1="135.766" x2="140.198" y2="135.766" gradientUnits="userSpaceOnUse">
<stop stop-color="#3EE2F3"/>
<stop offset="1" stop-color="#07387D"/>
</linearGradient>
<linearGradient id="paint11_linear" x1="88.8292" y1="124.922" x2="127.318" y2="127.05" gradientUnits="userSpaceOnUse">
<stop stop-color="#16E0F4"/>
<stop offset="1" stop-color="#4A90E1"/>
</linearGradient>
<linearGradient id="paint12_linear" x1="119.831" y1="75.4876" x2="107.391" y2="81.8852" gradientUnits="userSpaceOnUse">
<stop stop-opacity="0.037275"/>
<stop offset="1" stop-opacity="0.249507"/>
</linearGradient>
<linearGradient id="paint13_linear" x1="74.4007" y1="97.022" x2="130.261" y2="97.022" gradientUnits="userSpaceOnUse">
<stop stop-color="#3EE2F3"/>
<stop offset="1" stop-color="#07387D"/>
</linearGradient>
<linearGradient id="paint14_linear" x1="81.7046" y1="88.7275" x2="117.788" y2="90.7225" gradientUnits="userSpaceOnUse">
<stop stop-color="#16E0F4"/>
<stop offset="1" stop-color="#4A90E1"/>
</linearGradient>
<linearGradient id="paint15_linear" x1="100.709" y1="68.6611" x2="51.3887" y2="54.3471" gradientUnits="userSpaceOnUse">
<stop stop-color="#3EE2F3"/>
<stop offset="1" stop-color="#07387D"/>
</linearGradient>
<linearGradient id="paint16_linear" x1="41.952" y1="104.182" x2="72.0169" y2="105.428" gradientUnits="userSpaceOnUse">
<stop stop-color="#16E0F4"/>
<stop offset="1" stop-color="#4A90E1"/>
</linearGradient>
<linearGradient id="paint17_linear" x1="69.9401" y1="136.387" x2="95.9033" y2="146.507" gradientUnits="userSpaceOnUse">
<stop stop-color="#16E0F4"/>
<stop offset="1" stop-color="#4A90E1"/>
</linearGradient>
<linearGradient id="paint18_linear" x1="72.5924" y1="230.628" x2="124.594" y2="240.549" gradientUnits="userSpaceOnUse">
<stop stop-color="#3EE2F3"/>
<stop offset="1" stop-color="#07387D"/>
</linearGradient>
<linearGradient id="paint19_linear" x1="28.9616" y1="37.4159" x2="83.8597" y2="71.72" gradientUnits="userSpaceOnUse">
<stop stop-color="#3EE2F3"/>
<stop offset="1" stop-color="#07387D"/>
</linearGradient>
<linearGradient id="paint20_linear" x1="47.817" y1="49.2313" x2="88.9455" y2="52.4628" gradientUnits="userSpaceOnUse">
<stop stop-color="#16E0F4"/>
<stop offset="1" stop-color="#4A90E1"/>
</linearGradient>
<linearGradient id="paint21_linear" x1="10.7041" y1="55.3275" x2="10.7041" y2="164.963" gradientUnits="userSpaceOnUse">
<stop stop-color="#FAFCFF" stop-opacity="0.01"/>
<stop offset="1" stop-color="#F2F6FF" stop-opacity="0.65049"/>
</linearGradient>
<linearGradient id="paint22_linear" x1="128.026" y1="176.499" x2="139.525" y2="174.009" gradientUnits="userSpaceOnUse">
<stop stop-color="#16E0F4"/>
<stop offset="1" stop-color="#4A90E1"/>
</linearGradient>
<linearGradient id="paint23_linear" x1="117.132" y1="212.517" x2="170.265" y2="189.169" gradientUnits="userSpaceOnUse">
<stop stop-color="#3EE2F3"/>
<stop offset="1" stop-color="#07387D"/>
</linearGradient>
<linearGradient id="paint24_linear" x1="116.844" y1="152.533" x2="162.885" y2="155.196" gradientUnits="userSpaceOnUse">
<stop stop-color="#16E0F4"/>
<stop offset="1" stop-color="#4A90E1"/>
</linearGradient>
<linearGradient id="paint25_linear" x1="130.876" y1="134.935" x2="124.9" y2="167.588" gradientUnits="userSpaceOnUse">
<stop stop-color="white"/>
<stop offset="1" stop-color="white" stop-opacity="0"/>
</linearGradient>
<linearGradient id="paint26_linear" x1="17.4343" y1="155.135" x2="27.7836" y2="152.895" gradientUnits="userSpaceOnUse">
<stop stop-color="#16E0F4"/>
<stop offset="1" stop-color="#4A90E1"/>
</linearGradient>
<linearGradient id="paint27_linear" x1="7.62914" y1="187.551" x2="55.4486" y2="166.538" gradientUnits="userSpaceOnUse">
<stop stop-color="#3EE2F3"/>
<stop offset="1" stop-color="#07387D"/>
</linearGradient>
<linearGradient id="paint28_linear" x1="7.37018" y1="133.566" x2="48.8074" y2="135.963" gradientUnits="userSpaceOnUse">
<stop stop-color="#16E0F4"/>
<stop offset="1" stop-color="#4A90E1"/>
</linearGradient>
<linearGradient id="paint29_linear" x1="19.9988" y1="117.728" x2="14.6207" y2="147.116" gradientUnits="userSpaceOnUse">
<stop stop-color="white"/>
<stop offset="1" stop-color="white" stop-opacity="0"/>
</linearGradient>
<linearGradient id="paint30_linear" x1="195.212" y1="80.8735" x2="205.561" y2="78.6326" gradientUnits="userSpaceOnUse">
<stop stop-color="#16E0F4"/>
<stop offset="1" stop-color="#4A90E1"/>
</linearGradient>
<linearGradient id="paint31_linear" x1="185.406" y1="113.291" x2="233.225" y2="92.2771" gradientUnits="userSpaceOnUse">
<stop stop-color="#3EE2F3"/>
<stop offset="1" stop-color="#07387D"/>
</linearGradient>
<linearGradient id="paint32_linear" x1="185.148" y1="59.3055" x2="226.586" y2="61.7021" gradientUnits="userSpaceOnUse">
<stop stop-color="#16E0F4"/>
<stop offset="1" stop-color="#4A90E1"/>
</linearGradient>
<linearGradient id="paint33_linear" x1="197.777" y1="43.4669" x2="192.399" y2="72.8549" gradientUnits="userSpaceOnUse">
<stop stop-color="white"/>
<stop offset="1" stop-color="white" stop-opacity="0"/>
</linearGradient>
</defs>
</svg>
