<svg width="16" height="16" viewBox="0 0 16 16" fill="none" xmlns="http://www.w3.org/2000/svg">
<path d="M15.1169 0H0.883111C0.648896 0 0.424273 0.0930418 0.258657 0.258657C0.0930418 0.424273 0 0.648896 0 0.883111V15.1171C5.89273e-05 15.3513 0.0931268 15.5759 0.258736 15.7414C0.424345 15.907 0.648934 16 0.883111 16H8.546V9.804H6.46089V7.38933H8.546V5.60844C8.546 3.54178 9.80822 2.41667 11.6518 2.41667C12.5349 2.41667 13.2938 2.48222 13.5151 2.51178V4.67156L12.2364 4.67222C11.2338 4.67222 11.0398 5.14867 11.0398 5.84778V7.38956H13.4309L13.1196 9.80422H11.0398V16H15.1171C15.3513 15.9999 15.5759 15.9069 15.7414 15.7413C15.907 15.5757 16 15.3511 16 15.1169V0.883111C16 0.648896 15.907 0.424273 15.7413 0.258657C15.5757 0.0930418 15.3511 0 15.1169 0Z" fill="#BFBFBF"/>
</svg>
