<svg width="229" height="104" viewBox="0 0 229 104" fill="none" xmlns="http://www.w3.org/2000/svg">
<path d="M77.3934 5.19221L53.9112 81.8656C53.1482 84.3575 52.7667 85.6035 51.8179 85.8169C50.8692 86.0302 49.9921 85.0668 48.237 83.1399L40.1489 74.2615C36.1232 69.8419 34.1107 67.6317 31.5985 67.7476C29.0871 67.8642 27.2862 70.2495 23.6844 75.0216L7.01261 97.1088C4.3846 100.591 3.07101 102.332 2.3205 101.948C1.57 101.564 2.20972 99.479 3.48999 95.3078L22.5083 33.3433C23.8311 29.0329 24.4924 26.8777 26.215 26.3068C27.9367 25.7359 29.7534 27.0694 33.3869 29.7371L43.2198 36.8348C45.6441 38.5847 49.017 38.1118 50.8666 35.7627L75.6525 4.28379C76.9294 2.65113 77.5674 1.83522 77.9356 2.02773C78.3038 2.21942 78.0006 3.21035 77.3934 5.19221Z" stroke="url(#paint0_linear)" stroke-width="2.39044"/>
<path d="M107.429 70.5269H98.2995L87.1417 47.4106L83.0309 70.5269H73.9019L80.5218 33.0497H89.6509L100.809 56.2728L104.919 33.0497H114.048L107.429 70.5269Z" fill="white"/>
<path d="M135.988 33.0497C139.867 33.0497 142.821 33.9394 144.85 35.719C146.879 37.4629 147.893 39.7408 147.893 42.5524C147.893 43.371 147.822 44.1362 147.679 44.8481C147.252 47.3394 146.167 49.5639 144.423 51.5214C142.679 53.4789 140.348 54.8669 137.429 55.6855L143.462 70.5269H133.158L127.873 56.3795H125.684L123.175 70.5269H114.046L120.666 33.0497H135.988ZM138.337 45.2218C138.408 44.6523 138.444 44.2786 138.444 44.1006C138.444 42.9617 138.07 42.0898 137.322 41.4847C136.611 40.8441 135.543 40.5238 134.119 40.5238H128.46L126.805 49.9198H132.464C134.137 49.9198 135.454 49.5105 136.415 48.6919C137.411 47.8733 138.052 46.7166 138.337 45.2218Z" fill="white"/>
<path d="M150.687 51.7349C151.328 48.0334 152.698 44.7413 154.798 41.8584C156.934 38.94 159.585 36.6799 162.753 35.0783C165.92 33.4412 169.355 32.6226 173.056 32.6226C177.541 32.6226 181.135 33.7081 183.84 35.8791C186.581 38.0502 188.076 41.0576 188.325 44.9014H178.288C177.826 43.6558 177.007 42.7126 175.832 42.072C174.694 41.3957 173.288 41.0576 171.615 41.0576C168.661 41.0576 166.116 42.0364 163.981 43.9939C161.881 45.9158 160.546 48.4961 159.977 51.7349C159.799 52.8026 159.71 53.728 159.71 54.511C159.71 57.1447 160.475 59.1734 162.005 60.5971C163.536 62.0207 165.707 62.7325 168.518 62.7325C170.796 62.7325 172.807 62.1631 174.551 61.0242C176.295 59.8497 177.701 58.1947 178.769 56.0592H167.237L168.358 49.3859H188.218L186.723 57.8744C185.656 60.1522 184.125 62.2698 182.132 64.2273C180.175 66.1848 177.843 67.7686 175.138 68.9787C172.434 70.1888 169.515 70.7939 166.383 70.7939C163.144 70.7939 160.297 70.171 157.841 68.9254C155.421 67.6441 153.552 65.8645 152.236 63.5867C150.954 61.3089 150.314 58.6574 150.314 55.6321C150.314 54.6 150.438 53.3009 150.687 51.7349Z" fill="white"/>
<path d="M228.296 33.0497L210.946 58.1413L208.703 70.5269H199.574L201.817 58.1413L193.221 33.0497H203.578L208.063 48.6919L218.046 33.0497H228.296Z" fill="white"/>
<defs>
<linearGradient id="paint0_linear" x1="17.5378" y1="114.948" x2="104.937" y2="14.9138" gradientUnits="userSpaceOnUse">
<stop stop-color="#F2982D"/>
<stop offset="0.620205" stop-color="#C85ADA"/>
<stop offset="1" stop-color="#9166AB"/>
</linearGradient>
</defs>
</svg>
