<svg width="28" height="31" viewBox="0 0 28 31" fill="none" xmlns="http://www.w3.org/2000/svg">
<rect width="28" height="28" rx="14" fill="white"/>
<g filter="url(#filter0_d)">
<path d="M7.26014 22.6511L11.3853 9.18895C11.5111 8.77816 11.5741 8.57277 11.7305 8.53764C11.887 8.50251 12.0317 8.66128 12.3211 8.97882L13.8504 10.6568C14.5144 11.3853 14.8463 11.7495 15.2606 11.7304C15.6748 11.7113 15.9718 11.318 16.5658 10.5315L19.6105 6.49987C20.0439 5.92597 20.2606 5.63903 20.3844 5.70227C20.5081 5.7655 20.4026 6.10924 20.1915 6.79672L16.8167 17.7862C16.5986 18.4967 16.4895 18.852 16.2055 18.946C15.9215 19.0401 15.6219 18.8203 15.0227 18.3806L12.6009 16.6036C12.5401 16.559 12.5096 16.5366 12.4766 16.5412C12.4435 16.5457 12.4203 16.5755 12.3738 16.6349L7.54729 22.8008C7.33672 23.0698 7.23144 23.2043 7.17072 23.1727C7.11001 23.141 7.16005 22.9777 7.26014 22.6511Z" fill="url(#paint0_linear)"/>
<path d="M7.26014 22.6511L11.3853 9.18895C11.5111 8.77816 11.5741 8.57277 11.7305 8.53764C11.887 8.50251 12.0317 8.66128 12.3211 8.97882L13.8504 10.6568C14.5144 11.3853 14.8463 11.7495 15.2606 11.7304C15.6748 11.7113 15.9718 11.318 16.5658 10.5315L19.6105 6.49987C20.0439 5.92597 20.2606 5.63903 20.3844 5.70227C20.5081 5.7655 20.4026 6.10924 20.1915 6.79672L16.8167 17.7862C16.5986 18.4967 16.4895 18.852 16.2055 18.946C15.9215 19.0401 15.6219 18.8203 15.0227 18.3806L12.6009 16.6036C12.5401 16.559 12.5096 16.5366 12.4766 16.5412C12.4435 16.5457 12.4203 16.5755 12.3738 16.6349L7.54729 22.8008C7.33672 23.0698 7.23144 23.2043 7.17072 23.1727C7.11001 23.141 7.16005 22.9777 7.26014 22.6511Z" fill="url(#paint1_angular)"/>
<path d="M7.26014 22.6511L11.3853 9.18895C11.5111 8.77816 11.5741 8.57277 11.7305 8.53764C11.887 8.50251 12.0317 8.66128 12.3211 8.97882L13.8504 10.6568C14.5144 11.3853 14.8463 11.7495 15.2606 11.7304C15.6748 11.7113 15.9718 11.318 16.5658 10.5315L19.6105 6.49987C20.0439 5.92597 20.2606 5.63903 20.3844 5.70227C20.5081 5.7655 20.4026 6.10924 20.1915 6.79672L16.8167 17.7862C16.5986 18.4967 16.4895 18.852 16.2055 18.946C15.9215 19.0401 15.6219 18.8203 15.0227 18.3806L12.6009 16.6036C12.5401 16.559 12.5096 16.5366 12.4766 16.5412C12.4435 16.5457 12.4203 16.5755 12.3738 16.6349L7.54729 22.8008C7.33672 23.0698 7.23144 23.2043 7.17072 23.1727C7.11001 23.141 7.16005 22.9777 7.26014 22.6511Z" fill="url(#paint2_linear)"/>
<path d="M7.26014 22.6511L11.3853 9.18895C11.5111 8.77816 11.5741 8.57277 11.7305 8.53764C11.887 8.50251 12.0317 8.66128 12.3211 8.97882L13.8504 10.6568C14.5144 11.3853 14.8463 11.7495 15.2606 11.7304C15.6748 11.7113 15.9718 11.318 16.5658 10.5315L19.6105 6.49987C20.0439 5.92597 20.2606 5.63903 20.3844 5.70227C20.5081 5.7655 20.4026 6.10924 20.1915 6.79672L16.8167 17.7862C16.5986 18.4967 16.4895 18.852 16.2055 18.946C15.9215 19.0401 15.6219 18.8203 15.0227 18.3806L12.6009 16.6036C12.5401 16.559 12.5096 16.5366 12.4766 16.5412C12.4435 16.5457 12.4203 16.5755 12.3738 16.6349L7.54729 22.8008C7.33672 23.0698 7.23144 23.2043 7.17072 23.1727C7.11001 23.141 7.16005 22.9777 7.26014 22.6511Z" fill="url(#paint3_radial)"/>
</g>
<defs>
<filter id="filter0_d" x="1.87401" y="2.09783" width="23.8339" height="28.0246" filterUnits="userSpaceOnUse" color-interpolation-filters="sRGB">
<feFlood flood-opacity="0" result="BackgroundImageFix"/>
<feColorMatrix in="SourceAlpha" type="matrix" values="0 0 0 0 0 0 0 0 0 0 0 0 0 0 0 0 0 0 127 0" result="hardAlpha"/>
<feOffset dy="1.67474"/>
<feGaussianBlur stdDeviation="2.63526"/>
<feColorMatrix type="matrix" values="0 0 0 0 0.308333 0 0 0 0 0.419 0 0 0 0 1 0 0 0 0.35 0"/>
<feBlend mode="normal" in2="BackgroundImageFix" result="effect1_dropShadow"/>
<feBlend mode="normal" in="SourceGraphic" in2="effect1_dropShadow" result="shape"/>
</filter>
<linearGradient id="paint0_linear" x1="20.7307" y1="6.00407" x2="15.3087" y2="18.6805" gradientUnits="userSpaceOnUse">
<stop stop-color="#6100FF"/>
<stop offset="1" stop-color="#6000FF" stop-opacity="0.65"/>
</linearGradient>
<radialGradient id="paint1_angular" cx="0" cy="0" r="1" gradientUnits="userSpaceOnUse" gradientTransform="translate(12.5098 16.5594) rotate(125.287) scale(7.99545 6.37358)">
<stop stop-color="#FF6B00"/>
<stop offset="1" stop-color="white" stop-opacity="0"/>
</radialGradient>
<linearGradient id="paint2_linear" x1="10.5017" y1="8.51425" x2="13.0244" y2="11.4009" gradientUnits="userSpaceOnUse">
<stop stop-color="#FD7F0A"/>
<stop offset="1" stop-color="#F11E1E" stop-opacity="0"/>
</linearGradient>
<radialGradient id="paint3_radial" cx="0" cy="0" r="1" gradientUnits="userSpaceOnUse" gradientTransform="translate(17.2666 16.233) rotate(-148.068) scale(6.24087 26.9302)">
<stop stop-color="#5786FF"/>
<stop offset="1" stop-color="#AD1EF1" stop-opacity="0"/>
</radialGradient>
</defs>
</svg>
