<svg width="146" height="66" viewBox="0 0 146 66" fill="none" xmlns="http://www.w3.org/2000/svg">
<path d="M49.3085 3.04542L34.2622 52.1741C33.7733 53.7708 33.5289 54.5691 32.921 54.7059C32.313 54.8426 31.751 54.2252 30.6265 52.9906L25.444 47.3018C22.8645 44.4699 21.575 43.0537 19.9653 43.1279C18.3561 43.2027 17.2022 44.731 14.8944 47.7888L4.21184 61.9412C2.52794 64.1723 1.68625 65.2879 1.20536 65.0417C0.724475 64.796 1.13438 63.4599 1.95471 60.7872L14.1407 21.0833C14.9883 18.3214 15.4121 16.9404 16.5158 16.5746C17.619 16.2088 18.7831 17.0633 21.1112 18.7726L27.4117 23.3205C28.9651 24.4417 31.1262 24.1387 32.3114 22.6335L48.193 2.46335C49.0112 1.41721 49.42 0.894414 49.6559 1.01777C49.8918 1.14059 49.6976 1.77553 49.3085 3.04542Z" stroke="url(#paint0_linear)" stroke-width="1.53168"/>
<path d="M68.5536 44.9081H62.7041L55.5547 30.0963L52.9208 44.9081H47.0713L51.313 20.8944H57.1625L64.3119 35.7747L66.9458 20.8944H72.7953L68.5536 44.9081Z" fill="white"/>
<path d="M86.853 20.8944C89.3388 20.8944 91.2316 21.4646 92.5315 22.6048C93.8313 23.7223 94.4813 25.1818 94.4813 26.9834C94.4813 27.5079 94.4357 27.9982 94.3445 28.4543C94.0708 30.0507 93.3752 31.476 92.2578 32.7302C91.1404 33.9845 89.6466 34.8739 87.7766 35.3984L91.6421 44.9081H85.04L81.6535 35.8431H80.251L78.6432 44.9081H72.7937L77.0355 20.8944H86.853ZM88.3581 28.6938C88.4038 28.3289 88.4266 28.0894 88.4266 27.9754C88.4266 27.2456 88.1871 26.6869 87.7082 26.2992C87.2521 25.8887 86.5679 25.6835 85.6558 25.6835H82.0298L80.9693 31.704H84.5953C85.6671 31.704 86.5109 31.4418 87.1267 30.9172C87.7652 30.3927 88.1757 29.6516 88.3581 28.6938Z" fill="white"/>
<path d="M96.2718 32.8671C96.6823 30.4954 97.5603 28.3859 98.9058 26.5387C100.274 24.6687 101.973 23.2206 104.003 22.1943C106.032 21.1453 108.233 20.6208 110.605 20.6208C113.478 20.6208 115.782 21.3163 117.515 22.7074C119.271 24.0986 120.228 26.0256 120.388 28.4885H113.957C113.661 27.6903 113.136 27.086 112.384 26.6755C111.654 26.2422 110.753 26.0256 109.681 26.0256C107.788 26.0256 106.158 26.6527 104.79 27.907C103.444 29.1385 102.589 30.7918 102.224 32.8671C102.11 33.5512 102.053 34.1442 102.053 34.6459C102.053 36.3334 102.543 37.6333 103.524 38.5455C104.504 39.4577 105.896 39.9138 107.697 39.9138C109.157 39.9138 110.445 39.5489 111.563 38.8192C112.68 38.0666 113.581 37.0062 114.265 35.6379H106.876L107.595 31.3619H120.32L119.362 36.8009C118.678 38.2605 117.697 39.6174 116.42 40.8716C115.166 42.1259 113.672 43.1407 111.939 43.9161C110.206 44.6915 108.336 45.0792 106.329 45.0792C104.254 45.0792 102.429 44.6801 100.856 43.8819C99.3049 43.0609 98.1076 41.9207 97.2639 40.4611C96.4429 39.0016 96.0324 37.3026 96.0324 35.3642C96.0324 34.7029 96.1122 33.8705 96.2718 32.8671Z" fill="white"/>
<path d="M146 20.8944L134.882 36.972L133.446 44.9081H127.596L129.033 36.972L123.526 20.8944H130.162L133.035 30.9172L139.432 20.8944H146Z" fill="white"/>
<defs>
<linearGradient id="paint0_linear" x1="10.9559" y1="73.3718" x2="66.9569" y2="9.27453" gradientUnits="userSpaceOnUse">
<stop stop-color="#F2982D"/>
<stop offset="0.620205" stop-color="#C85ADA"/>
<stop offset="1" stop-color="#9166AB"/>
</linearGradient>
</defs>
</svg>
