<svg width="80" height="32" viewBox="0 0 80 32" fill="none" xmlns="http://www.w3.org/2000/svg">
<path d="M11.7479 11.228V21H9.78793V14.644L7.16993 21H5.68593L3.05393 14.644V21H1.09393V11.228H3.31993L6.42793 18.494L9.53593 11.228H11.7479ZM20.8957 16.954C20.8957 17.234 20.8771 17.486 20.8397 17.71H15.1697C15.2164 18.27 15.4124 18.7087 15.7577 19.026C16.1031 19.3433 16.5277 19.502 17.0317 19.502C17.7597 19.502 18.2777 19.1893 18.5857 18.564H20.6997C20.4757 19.3107 20.0464 19.9267 19.4117 20.412C18.7771 20.888 17.9977 21.126 17.0737 21.126C16.3271 21.126 15.6551 20.9627 15.0577 20.636C14.4697 20.3 14.0077 19.8287 13.6717 19.222C13.3451 18.6153 13.1817 17.9153 13.1817 17.122C13.1817 16.3193 13.3451 15.6147 13.6717 15.008C13.9984 14.4013 14.4557 13.9347 15.0437 13.608C15.6317 13.2813 16.3084 13.118 17.0737 13.118C17.8111 13.118 18.4691 13.2767 19.0477 13.594C19.6357 13.9113 20.0884 14.364 20.4057 14.952C20.7324 15.5307 20.8957 16.198 20.8957 16.954ZM18.8657 16.394C18.8564 15.89 18.6744 15.4887 18.3197 15.19C17.9651 14.882 17.5311 14.728 17.0177 14.728C16.5324 14.728 16.1217 14.8773 15.7857 15.176C15.4591 15.4653 15.2584 15.8713 15.1837 16.394H18.8657ZM26.6244 13.132C27.5484 13.132 28.295 13.426 28.8644 14.014C29.4337 14.5927 29.7184 15.4047 29.7184 16.45V21H27.7584V16.716C27.7584 16.1 27.6044 15.6287 27.2964 15.302C26.9884 14.966 26.5684 14.798 26.0364 14.798C25.495 14.798 25.0657 14.966 24.7484 15.302C24.4404 15.6287 24.2864 16.1 24.2864 16.716V21H22.3264V13.244H24.2864V14.21C24.5477 13.874 24.879 13.6127 25.2804 13.426C25.691 13.23 26.139 13.132 26.6244 13.132ZM38.9042 13.244V21H36.9302V20.02C36.6782 20.356 36.3469 20.622 35.9362 20.818C35.5349 21.0047 35.0962 21.098 34.6202 21.098C34.0135 21.098 33.4769 20.972 33.0102 20.72C32.5435 20.4587 32.1749 20.0807 31.9042 19.586C31.6429 19.082 31.5122 18.4847 31.5122 17.794V13.244H33.4722V17.514C33.4722 18.13 33.6262 18.606 33.9342 18.942C34.2422 19.2687 34.6622 19.432 35.1942 19.432C35.7355 19.432 36.1602 19.2687 36.4682 18.942C36.7762 18.606 36.9302 18.13 36.9302 17.514V13.244H38.9042Z" fill="white"/>
<path d="M52 16H76" stroke="white" stroke-width="2.66667" stroke-linecap="round" stroke-linejoin="round"/>
<path d="M52 8H76" stroke="white" stroke-width="2.66667" stroke-linecap="round" stroke-linejoin="round"/>
<path d="M52 24H76" stroke="white" stroke-width="2.66667" stroke-linecap="round" stroke-linejoin="round"/>
</svg>
