<svg width="51" height="66" viewBox="0 0 51 66" fill="none" xmlns="http://www.w3.org/2000/svg">
<path d="M49.3085 3.04542L34.2622 52.1741C33.7733 53.7708 33.5289 54.5691 32.921 54.7059C32.313 54.8426 31.751 54.2252 30.6265 52.9906L25.444 47.3018C22.8645 44.4699 21.575 43.0537 19.9653 43.1279C18.3561 43.2027 17.2022 44.731 14.8944 47.7888L4.21184 61.9412C2.52794 64.1723 1.68625 65.2879 1.20536 65.0417C0.724475 64.796 1.13438 63.4599 1.95471 60.7872L14.1407 21.0833C14.9883 18.3214 15.4121 16.9404 16.5158 16.5746C17.619 16.2088 18.7831 17.0633 21.1112 18.7726L27.4117 23.3205C28.9651 24.4417 31.1262 24.1387 32.3114 22.6335L48.193 2.46335C49.0112 1.41721 49.42 0.894414 49.6559 1.01777C49.8918 1.14059 49.6976 1.77553 49.3085 3.04542Z" stroke="url(#paint0_linear)" stroke-width="1.53168"/>
<defs>
<linearGradient id="paint0_linear" x1="10.9559" y1="73.3718" x2="66.9569" y2="9.27453" gradientUnits="userSpaceOnUse">
<stop stop-color="#F2982D"/>
<stop offset="0.620205" stop-color="#C85ADA"/>
<stop offset="1" stop-color="#9166AB"/>
</linearGradient>
</defs>
</svg>
