<svg width="215" height="191" viewBox="0 0 215 191" fill="none" xmlns="http://www.w3.org/2000/svg">
<ellipse cx="102.687" cy="113.19" rx="90.9443" ry="49.7021" transform="rotate(-20 102.687 113.19)" stroke="url(#paint0_linear)" stroke-width="2.11498" stroke-linecap="square" stroke-linejoin="round"/>
<ellipse cx="100.66" cy="110.556" rx="50.7596" ry="28.5523" transform="rotate(-21 100.66 110.556)" stroke="url(#paint1_linear)" stroke-width="2.11498" stroke-linecap="square" stroke-linejoin="round"/>
<ellipse opacity="0.527469" cx="17.1585" cy="133.157" rx="13.7474" ry="9.51742" transform="rotate(-10 17.1585 133.157)" fill="url(#paint2_linear)"/>
<ellipse opacity="0.527469" cx="17.3786" cy="133.098" rx="6.34495" ry="4.22997" transform="rotate(-10 17.3786 133.098)" fill="url(#paint3_linear)"/>
<path fill-rule="evenodd" clip-rule="evenodd" d="M9.3034 134.002L16.5801 99.9555C16.6885 98.9192 16.7428 98.4012 17.0977 98.2452C17.4526 98.0895 17.8694 98.4008 18.7029 99.0236L24.1447 103.089C26.0569 104.518 27.013 105.232 27.9868 104.996C28.9606 104.759 29.4831 103.686 30.5283 101.539L36.0417 79.4807C36.0417 79.4807 40.154 82.6094 40.4768 82.703C40.7997 82.7965 40.7084 83.6637 40.5258 85.3982L36.1431 118.534C35.9545 120.327 35.8601 121.223 35.23 121.578C34.5998 121.933 33.7872 121.548 32.1624 120.777L24.5503 117.167C24.3854 117.088 24.3028 117.049 24.2265 117.076C24.1502 117.102 24.1088 117.183 24.026 117.346L12.9813 135.091C12.6063 135.828 12.4188 136.197 12.2601 136.15C12.1014 136.102 9.3034 134.002 9.3034 134.002Z" fill="url(#paint4_linear)"/>
<path fill-rule="evenodd" clip-rule="evenodd" d="M9.27567 132.718L12.1467 96.7335C12.2551 95.6972 12.3094 95.1792 12.6643 95.0233C13.0192 94.8675 13.436 95.1788 14.2695 95.8016L19.7113 99.8672C21.6235 101.296 22.5796 102.01 23.5534 101.774C24.5272 101.537 25.0497 100.464 26.0949 98.3166L34.5768 81.7372C35.3393 80.1707 35.7206 79.3874 36.0434 79.481C36.3663 79.5745 36.275 80.4417 36.0924 82.1762L31.7097 115.313C31.521 117.105 31.4267 118.001 30.7966 118.356C30.1664 118.711 29.3538 118.326 27.7289 117.555L20.1169 113.945C19.9519 113.866 19.8694 113.827 19.7931 113.854C19.7168 113.88 19.6754 113.961 19.5926 114.124L10.0262 132.943C9.65122 133.68 9.46376 134.049 9.30505 134.002C9.14631 133.954 9.18943 133.542 9.27567 132.718Z" fill="url(#paint5_linear)"/>
<path fill-rule="evenodd" clip-rule="evenodd" d="M9.27567 132.718L12.1467 96.7335C12.2551 95.6972 12.3094 95.1792 12.6643 95.0233C13.0192 94.8675 13.436 95.1788 14.2695 95.8016L19.7113 99.8672C21.6235 101.296 22.5796 102.01 23.5534 101.774C24.5272 101.537 25.0497 100.464 26.0949 98.3166L34.5768 81.7372C35.3393 80.1707 35.7206 79.3874 36.0434 79.481C36.3663 79.5745 36.275 80.4417 36.0924 82.1762L31.7097 115.313C31.521 117.105 31.4267 118.001 30.7966 118.356C30.1664 118.711 29.3538 118.326 27.7289 117.555L20.1169 113.945C19.9519 113.866 19.8694 113.827 19.7931 113.854C19.7168 113.88 19.6754 113.961 19.5926 114.124L10.0262 132.943C9.65122 133.68 9.46376 134.049 9.30505 134.002C9.14631 133.954 9.18943 133.542 9.27567 132.718Z" fill="url(#paint6_linear)"/>
<ellipse opacity="0.527469" cx="188.472" cy="84.5127" rx="13.7474" ry="9.51742" transform="rotate(-10 188.472 84.5127)" fill="url(#paint7_linear)"/>
<ellipse opacity="0.527469" cx="188.693" cy="84.4536" rx="6.34495" ry="4.22997" transform="rotate(-10 188.693 84.4536)" fill="url(#paint8_linear)"/>
<path fill-rule="evenodd" clip-rule="evenodd" d="M175.657 78.8398C170.912 78.1852 165.688 60.9571 165.688 60.9571C165.688 60.9571 170.912 57.4962 175.657 58.1436C177.046 58.3331 178.359 58.9093 179.52 59.7731C180.071 57.6968 181.543 53.0161 181.543 53.0161C181.543 53.0161 187.843 50.2456 191.52 50.7446C198.063 51.6329 203.438 58.4028 204.024 66.1957C205.028 65.6996 206.17 65.498 207.382 65.6636C211.397 66.2124 214.652 68.8035 214.652 75.4384C214.652 82.0734 204.606 84.7968 204.606 84.7968L175.657 78.8398Z" fill="url(#paint9_linear)"/>
<path fill-rule="evenodd" clip-rule="evenodd" d="M169.946 80.7433C165.201 80.0886 161.354 74.9279 161.354 69.2164C161.354 63.5049 165.201 59.3996 169.946 60.0471C171.335 60.2366 172.648 60.8128 173.809 61.6765C175.391 55.7192 180.165 51.8821 185.808 52.6481C192.352 53.5363 197.727 60.3063 198.313 68.0992C199.317 67.6031 200.459 67.4015 201.671 67.5671C205.686 68.1159 208.941 72.4922 208.941 77.3419C208.941 82.0734 205.843 85.5034 201.963 85.1535L201.671 85.1201L169.946 80.7433Z" fill="url(#paint10_linear)"/>
<ellipse opacity="0.527469" cx="122.908" cy="158.537" rx="13.7474" ry="9.51742" transform="rotate(-10 122.908 158.537)" fill="url(#paint11_linear)"/>
<ellipse opacity="0.527469" cx="123.128" cy="158.478" rx="6.34495" ry="4.22997" transform="rotate(-10 123.128 158.478)" fill="url(#paint12_linear)"/>
<path fill-rule="evenodd" clip-rule="evenodd" d="M92.954 95.0264C102.312 92.8658 111.264 95.0466 115.951 100L117.498 99.6326L118.901 105.116C118.949 105.287 118.993 105.46 119.033 105.634C121.046 114.353 112.634 123.74 100.243 126.601C87.9772 129.433 76.4108 124.806 74.2276 116.253L74.1622 115.984L72.7155 110.27L74.3751 109.876C76.2911 103.251 83.4531 97.2199 92.954 95.0264Z" fill="url(#paint13_linear)"/>
<ellipse cx="95.1656" cy="105.196" rx="23.0245" ry="16.2025" transform="rotate(-13 95.1656 105.196)" fill="url(#paint14_linear)"/>
<ellipse cx="95.1656" cy="105.196" rx="23.0245" ry="16.2025" transform="rotate(-13 95.1656 105.196)" fill="url(#paint15_linear)"/>
<path fill-rule="evenodd" clip-rule="evenodd" d="M115.195 95.1533C116.356 96.5835 117.185 98.2152 117.6 100.016C118.491 103.875 117.34 107.864 114.707 111.36L91.882 103.395C91.882 103.395 109.314 95.9749 115.195 95.1533Z" fill="url(#paint16_linear)"/>
<path fill-rule="evenodd" clip-rule="evenodd" d="M69.0954 17.5217L100.936 3.74757L114.084 4.89781L149.622 24.5669L148.558 36.7326C146.011 65.8509 128.243 91.4463 101.853 104.014L100.383 104.714L92.1657 103.996C68.3593 87.0362 65.4835 58.8057 68.031 29.6874L69.0954 17.5217Z" fill="url(#paint17_linear)"/>
<path fill-rule="evenodd" clip-rule="evenodd" d="M60.8781 16.803L100.936 3.74772L138.118 23.5606L136.951 36.9064C136.884 37.6675 136.851 38.048 136.816 38.406C134.166 65.9295 117.902 90.2941 93.4989 103.297C93.1815 103.466 92.8428 103.642 92.1655 103.996C91.5598 103.53 91.2569 103.297 90.9737 103.076C69.1994 86.0332 57.4128 59.2144 59.5824 31.6489C59.6106 31.2904 59.6439 30.9099 59.7105 30.1488L60.8781 16.803Z" fill="url(#paint18_linear)"/>
<path fill-rule="evenodd" clip-rule="evenodd" d="M86.6387 36.5689C87.1211 31.0551 91.9821 26.9763 97.4959 27.4587C103.01 27.9411 107.089 32.802 106.606 38.3158L105.83 47.1902C105.723 48.4155 104.642 49.3219 103.417 49.2147L87.8868 47.856C86.6615 47.7488 85.7551 46.6686 85.8623 45.4433L86.6387 36.5689ZM102.169 37.9275C102.43 34.9448 100.288 32.3061 97.3477 31.9219L97.1075 31.8957C94.0443 31.6277 91.3438 33.8937 91.0758 36.9569L90.4935 43.6127L101.586 44.5833L102.169 37.9275Z" fill="#BEEFFA"/>
<path d="M79.9458 44.926C80.1602 42.4754 82.3206 40.6626 84.7712 40.877L107.697 42.8827C110.147 43.0971 111.96 45.2575 111.746 47.7081L109.999 67.6755C109.784 70.1261 107.624 71.9389 105.173 71.7245L82.2479 69.7188C79.7973 69.5044 77.9845 67.344 78.1989 64.8934L79.9458 44.926Z" fill="#BEEFFA"/>
<path fill-rule="evenodd" clip-rule="evenodd" d="M95.4905 50.3842C97.3285 50.545 98.6881 52.1653 98.5273 54.0032C98.4097 55.3471 97.5118 56.4353 96.319 56.8603L96.6415 62.7806L92.2043 62.3924L93.5511 56.6187C92.4496 55.9932 91.7538 54.7653 91.8714 53.4209C92.0322 51.583 93.6526 50.2234 95.4905 50.3842Z" fill="url(#paint19_linear)"/>
<g filter="url(#filter0_f)">
<circle cx="59.7226" cy="18.2175" r="3.20183" transform="rotate(5 59.7226 18.2175)" fill="white"/>
</g>
<g filter="url(#filter1_f)">
<circle cx="59.7225" cy="18.2176" r="1.49419" transform="rotate(5 59.7225 18.2176)" fill="white"/>
</g>
<g filter="url(#filter2_f)">
<circle cx="176.954" cy="122.193" r="2.91076" fill="white"/>
</g>
<g filter="url(#filter3_f)">
<circle cx="176.954" cy="122.193" r="1.35835" fill="white"/>
</g>
<g filter="url(#filter4_f)">
<circle cx="60.6295" cy="136.998" r="2.91076" fill="white"/>
</g>
<g filter="url(#filter5_f)">
<circle cx="60.6298" cy="136.998" r="1.35835" fill="white"/>
</g>
<path fill-rule="evenodd" clip-rule="evenodd" d="M111.733 134.733C117.173 128.015 124.73 124.602 130.799 125.518L131.693 124.4L135.726 127.512C135.854 127.607 135.981 127.705 136.107 127.806C142.365 132.874 141.601 144.193 134.398 153.087C127.268 161.892 116.502 165.02 110.214 160.164L110.018 160.009L105.827 156.758L106.785 155.559C104.473 149.799 106.211 141.553 111.733 134.733Z" fill="url(#paint20_linear)"/>
<ellipse cx="118.937" cy="140.72" rx="20.7221" ry="14.5822" transform="rotate(-51 118.937 140.72)" fill="url(#paint21_linear)"/>
<ellipse cx="118.937" cy="140.72" rx="20.7221" ry="14.5822" transform="rotate(-51 118.937 140.72)" fill="url(#paint22_linear)"/>
<ellipse cx="119.179" cy="140.702" rx="11.3972" ry="8.02022" transform="rotate(-51 119.179 140.702)" fill="url(#paint23_linear)" stroke="url(#paint24_linear)" stroke-width="0.8368" stroke-linecap="square" stroke-linejoin="round"/>
<mask id="mask0" mask-type="alpha" maskUnits="userSpaceOnUse" x="109" y="130" width="21" height="22">
<ellipse cx="119.179" cy="140.702" rx="11.3972" ry="8.02022" transform="rotate(-51 119.179 140.702)" fill="white" stroke="white" stroke-width="0.8368" stroke-linecap="square" stroke-linejoin="round"/>
</mask>
<g mask="url(#mask0)">
<circle cx="119.525" cy="138.876" r="1.57037" transform="rotate(-41 119.525 138.876)" stroke="white" stroke-width="1.05749" stroke-linecap="square" stroke-linejoin="round"/>
<circle cx="114.291" cy="142.017" r="1.57037" transform="rotate(-41 114.291 142.017)" stroke="white" stroke-width="1.05749" stroke-linecap="square" stroke-linejoin="round"/>
<circle cx="122.666" cy="144.111" r="1.57037" transform="rotate(-41 122.666 144.111)" stroke="white" stroke-width="1.05749" stroke-linecap="square" stroke-linejoin="round"/>
<path d="M119.234 141.254L118.166 145.363L114.325 146.757L113.325 150.032" stroke="white" stroke-width="1.05749" stroke-linecap="square" stroke-linejoin="round"/>
<path d="M114.58 140.182L115.869 135.476L120.237 134.488L121.74 129.513" stroke="white" stroke-width="1.05749" stroke-linecap="square" stroke-linejoin="round"/>
<path d="M122.873 142.615L125.462 131.405" stroke="white" stroke-width="1.05749" stroke-linecap="square" stroke-linejoin="round"/>
</g>
<defs>
<filter id="filter0_f" x="47.2368" y="5.73166" width="24.9715" height="24.9715" filterUnits="userSpaceOnUse" color-interpolation-filters="sRGB">
<feFlood flood-opacity="0" result="BackgroundImageFix"/>
<feBlend mode="normal" in="SourceGraphic" in2="BackgroundImageFix" result="shape"/>
<feGaussianBlur stdDeviation="4.64186" result="effect1_foregroundBlur"/>
</filter>
<filter id="filter1_f" x="51.1451" y="9.64047" width="17.1544" height="17.1544" filterUnits="userSpaceOnUse" color-interpolation-filters="sRGB">
<feFlood flood-opacity="0" result="BackgroundImageFix"/>
<feBlend mode="normal" in="SourceGraphic" in2="BackgroundImageFix" result="shape"/>
<feGaussianBlur stdDeviation="3.54146" result="effect1_foregroundBlur"/>
</filter>
<filter id="filter2_f" x="165.603" y="110.842" width="22.701" height="22.701" filterUnits="userSpaceOnUse" color-interpolation-filters="sRGB">
<feFlood flood-opacity="0" result="BackgroundImageFix"/>
<feBlend mode="normal" in="SourceGraphic" in2="BackgroundImageFix" result="shape"/>
<feGaussianBlur stdDeviation="4.21987" result="effect1_foregroundBlur"/>
</filter>
<filter id="filter3_f" x="169.156" y="114.395" width="15.5947" height="15.5947" filterUnits="userSpaceOnUse" color-interpolation-filters="sRGB">
<feFlood flood-opacity="0" result="BackgroundImageFix"/>
<feBlend mode="normal" in="SourceGraphic" in2="BackgroundImageFix" result="shape"/>
<feGaussianBlur stdDeviation="3.21951" result="effect1_foregroundBlur"/>
</filter>
<filter id="filter4_f" x="49.279" y="125.647" width="22.701" height="22.701" filterUnits="userSpaceOnUse" color-interpolation-filters="sRGB">
<feFlood flood-opacity="0" result="BackgroundImageFix"/>
<feBlend mode="normal" in="SourceGraphic" in2="BackgroundImageFix" result="shape"/>
<feGaussianBlur stdDeviation="4.21987" result="effect1_foregroundBlur"/>
</filter>
<filter id="filter5_f" x="52.8325" y="129.2" width="15.5947" height="15.5947" filterUnits="userSpaceOnUse" color-interpolation-filters="sRGB">
<feFlood flood-opacity="0" result="BackgroundImageFix"/>
<feBlend mode="normal" in="SourceGraphic" in2="BackgroundImageFix" result="shape"/>
<feGaussianBlur stdDeviation="3.21951" result="effect1_foregroundBlur"/>
</filter>
<linearGradient id="paint0_linear" x1="8.41542" y1="63.4884" x2="8.41542" y2="166.529" gradientUnits="userSpaceOnUse">
<stop stop-color="#FAFCFF" stop-opacity="0.01"/>
<stop offset="1" stop-color="#F2F6FF" stop-opacity="0.65049"/>
</linearGradient>
<linearGradient id="paint1_linear" x1="48.0438" y1="82.0038" x2="48.0438" y2="141.197" gradientUnits="userSpaceOnUse">
<stop stop-color="#FAFCFF" stop-opacity="0.0694204"/>
<stop offset="1" stop-color="#F2F6FF" stop-opacity="0.65049"/>
</linearGradient>
<linearGradient id="paint2_linear" x1="9.04575" y1="141.378" x2="29.6228" y2="141.378" gradientUnits="userSpaceOnUse">
<stop stop-color="white"/>
<stop offset="1" stop-color="#1F75D8"/>
</linearGradient>
<linearGradient id="paint3_linear" x1="13.6342" y1="136.752" x2="23.1313" y2="136.752" gradientUnits="userSpaceOnUse">
<stop stop-color="white"/>
<stop offset="1" stop-color="#1F75D8"/>
</linearGradient>
<linearGradient id="paint4_linear" x1="-14.9622" y1="109.297" x2="46.392" y2="133.509" gradientUnits="userSpaceOnUse">
<stop stop-color="#3EE2F3"/>
<stop offset="1" stop-color="#07387D"/>
</linearGradient>
<linearGradient id="paint5_linear" x1="-3.7421" y1="123.465" x2="28.5706" y2="137.784" gradientUnits="userSpaceOnUse">
<stop stop-color="#3EF3A5"/>
<stop offset="1" stop-color="#1F75D8"/>
</linearGradient>
<linearGradient id="paint6_linear" x1="3.60586" y1="129.799" x2="38.406" y2="124.54" gradientUnits="userSpaceOnUse">
<stop stop-color="#16E0F4"/>
<stop offset="1" stop-color="#4A90E1"/>
</linearGradient>
<linearGradient id="paint7_linear" x1="180.36" y1="92.7334" x2="200.937" y2="92.7334" gradientUnits="userSpaceOnUse">
<stop stop-color="white"/>
<stop offset="1" stop-color="#1F75D8"/>
</linearGradient>
<linearGradient id="paint8_linear" x1="184.948" y1="88.1072" x2="194.445" y2="88.1072" gradientUnits="userSpaceOnUse">
<stop stop-color="white"/>
<stop offset="1" stop-color="#1F75D8"/>
</linearGradient>
<linearGradient id="paint9_linear" x1="159.553" y1="80.2732" x2="214.286" y2="86.4295" gradientUnits="userSpaceOnUse">
<stop stop-color="#3EE2F3"/>
<stop offset="1" stop-color="#07387D"/>
</linearGradient>
<linearGradient id="paint10_linear" x1="155.246" y1="81.6597" x2="200.453" y2="85.3052" gradientUnits="userSpaceOnUse">
<stop stop-color="#16E0F4"/>
<stop offset="1" stop-color="#4A90E1"/>
</linearGradient>
<linearGradient id="paint11_linear" x1="114.795" y1="166.758" x2="135.372" y2="166.758" gradientUnits="userSpaceOnUse">
<stop stop-color="white"/>
<stop offset="1" stop-color="#1F75D8"/>
</linearGradient>
<linearGradient id="paint12_linear" x1="119.383" y1="162.132" x2="128.88" y2="162.132" gradientUnits="userSpaceOnUse">
<stop stop-color="white"/>
<stop offset="1" stop-color="#1F75D8"/>
</linearGradient>
<linearGradient id="paint13_linear" x1="33.0479" y1="133.363" x2="85.237" y2="178.199" gradientUnits="userSpaceOnUse">
<stop stop-color="#3EE2F3"/>
<stop offset="1" stop-color="#07387D"/>
</linearGradient>
<linearGradient id="paint14_linear" x1="81.5781" y1="119.191" x2="116.041" y2="119.191" gradientUnits="userSpaceOnUse">
<stop stop-color="#3EF3A5"/>
<stop offset="1" stop-color="#1F75D8"/>
</linearGradient>
<linearGradient id="paint15_linear" x1="66.2306" y1="117.904" x2="109.99" y2="121.342" gradientUnits="userSpaceOnUse">
<stop stop-color="#16E0F4"/>
<stop offset="1" stop-color="#4A90E1"/>
</linearGradient>
<linearGradient id="paint16_linear" x1="88.7594" y1="87.1187" x2="85.6535" y2="104.822" gradientUnits="userSpaceOnUse">
<stop stop-opacity="0.037275"/>
<stop offset="1" stop-opacity="0.249507"/>
</linearGradient>
<linearGradient id="paint17_linear" x1="52.8348" y1="87.1653" x2="143.129" y2="100.827" gradientUnits="userSpaceOnUse">
<stop stop-color="#3EE2F3"/>
<stop offset="1" stop-color="#07387D"/>
</linearGradient>
<linearGradient id="paint18_linear" x1="53.5455" y1="55.3364" x2="107.076" y2="89.7466" gradientUnits="userSpaceOnUse">
<stop stop-color="#16E0F4"/>
<stop offset="1" stop-color="#4A90E1"/>
</linearGradient>
<linearGradient id="paint19_linear" x1="84.8535" y1="59.9691" x2="97.4849" y2="68.5056" gradientUnits="userSpaceOnUse">
<stop stop-color="#16E0F4"/>
<stop offset="1" stop-color="#4A90E1"/>
</linearGradient>
<linearGradient id="paint20_linear" x1="90.4896" y1="195.116" x2="152.346" y2="197.996" gradientUnits="userSpaceOnUse">
<stop stop-color="#3EE2F3"/>
<stop offset="1" stop-color="#07387D"/>
</linearGradient>
<linearGradient id="paint21_linear" x1="106.708" y1="153.315" x2="137.725" y2="153.315" gradientUnits="userSpaceOnUse">
<stop stop-color="#3EF3A5"/>
<stop offset="1" stop-color="#1F75D8"/>
</linearGradient>
<linearGradient id="paint22_linear" x1="92.8953" y1="152.157" x2="132.279" y2="155.252" gradientUnits="userSpaceOnUse">
<stop stop-color="#16E0F4"/>
<stop offset="1" stop-color="#4A90E1"/>
</linearGradient>
<linearGradient id="paint23_linear" x1="111.693" y1="135.903" x2="137.914" y2="148.354" gradientUnits="userSpaceOnUse">
<stop stop-color="#16E0F4"/>
<stop offset="1" stop-color="#4A90E1"/>
</linearGradient>
<linearGradient id="paint24_linear" x1="124.055" y1="128.933" x2="111.998" y2="146.515" gradientUnits="userSpaceOnUse">
<stop stop-color="white"/>
<stop offset="1" stop-color="white" stop-opacity="0"/>
</linearGradient>
</defs>
</svg>
