<svg width="677" height="527" viewBox="0 0 677 527" fill="none" xmlns="http://www.w3.org/2000/svg">
<g filter="url(#filter0_f)">
<circle cx="95.4712" cy="239.447" r="8.59511" transform="rotate(19.4342 95.4712 239.447)" fill="white"/>
</g>
<g filter="url(#filter1_f)">
<circle cx="95.4709" cy="239.447" r="4.01105" transform="rotate(19.4342 95.4709 239.447)" fill="white"/>
</g>
<path fill-rule="evenodd" clip-rule="evenodd" d="M273.196 227.051C273.819 225.285 275.476 224.093 277.348 224.064L359.089 222.796C360.159 222.779 361.199 223.146 362.022 223.831L424.869 276.114C426.309 277.311 426.851 279.278 426.228 281.044L416.647 308.198C416.024 309.964 414.368 311.155 412.495 311.184L330.754 312.453C329.684 312.469 328.644 312.102 327.821 311.418L264.974 259.135C263.534 257.937 262.992 255.97 263.616 254.204L273.196 227.051Z" fill="url(#paint0_linear)"/>
<path fill-rule="evenodd" clip-rule="evenodd" d="M420.199 272.229L424.869 276.114C426.309 277.312 426.851 279.279 426.228 281.045L416.647 308.198C416.024 309.964 414.368 311.156 412.495 311.185L330.754 312.453C330.219 312.461 329.691 312.374 329.195 312.199L351.81 248.1L420.199 272.229Z" fill="url(#paint1_linear)"/>
<path fill-rule="evenodd" clip-rule="evenodd" d="M362.021 223.831L424.868 276.114C425.812 276.899 426.37 278.015 426.467 279.188C425.655 280.041 424.52 280.56 423.293 280.579L341.551 281.847C340.482 281.864 339.441 281.497 338.619 280.812L275.772 228.529C274.828 227.744 274.27 226.629 274.173 225.456C274.985 224.602 276.12 224.084 277.347 224.065L359.089 222.797C360.158 222.78 361.198 223.147 362.021 223.831Z" fill="url(#paint2_linear)"/>
<path fill-rule="evenodd" clip-rule="evenodd" d="M357.48 234.847L395.447 266.156C396.017 266.626 396.356 267.292 396.417 267.991C395.93 268.497 395.249 268.803 394.51 268.812L345.303 269.363C344.659 269.37 344.031 269.149 343.535 268.739L305.568 237.431C304.998 236.961 304.659 236.294 304.598 235.595C305.085 235.089 305.766 234.783 306.505 234.775L355.713 234.224C356.356 234.216 356.984 234.438 357.48 234.847Z" fill="url(#paint3_linear)"/>
<path fill-rule="evenodd" clip-rule="evenodd" d="M355.991 239.069L392.092 268.838L345.303 269.363C344.659 269.37 344.032 269.148 343.535 268.739L307.435 238.969L354.223 238.445C354.867 238.438 355.495 238.659 355.991 239.069Z" fill="#BEEFFA"/>
<path d="M368.739 133.579L375.915 135.57C375.915 135.57 379.876 207.175 378.525 208.522C377.175 209.87 366.013 208.513 366.013 208.513L358.929 263.582L350.56 261.05L327.118 172.862C327.118 172.862 356.284 181.348 356.921 181.34C357.557 181.333 358.021 180.921 358.267 180.07C359.05 177.361 368.739 133.579 368.739 133.579Z" fill="#BEEFFA"/>
<path d="M358 261.015L339.423 186.53C338.94 184.367 338.699 183.286 339.309 182.732C339.919 182.177 340.97 182.523 343.072 183.214L356.794 187.725C361.617 189.31 364.027 190.103 365.831 188.967C367.633 187.831 367.96 185.313 368.613 180.277L374.486 141.112C374.963 137.438 375.201 135.601 375.915 135.571C376.629 135.541 377.032 137.351 377.839 140.971L391.44 210.737C392.273 214.478 392.69 216.349 391.66 217.491C390.63 218.633 388.731 218.407 384.933 217.953L367.144 215.829C366.758 215.783 366.565 215.76 366.429 215.865C366.293 215.969 366.265 216.161 366.208 216.546L359.665 260.959C359.409 262.7 359.281 263.571 358.929 263.583C358.577 263.595 358.384 262.735 358 261.015Z" fill="url(#paint4_linear)"/>
<path fill-rule="evenodd" clip-rule="evenodd" d="M439.439 169.833L395.447 266.155C396.017 266.625 396.356 267.291 396.417 267.99C395.93 268.497 395.249 268.803 394.51 268.811L345.302 269.362C344.659 269.369 344.031 269.148 343.535 268.738L305.568 237.43C304.998 236.96 304.659 236.294 304.598 235.595C305.085 235.089 305.766 234.782 306.505 234.774L330.683 133.609L439.439 169.833Z" fill="url(#paint5_linear)"/>
<path fill-rule="evenodd" clip-rule="evenodd" d="M333.001 104.639C333.5 103.226 334.825 102.273 336.323 102.249L401.716 101.235C402.572 101.221 403.404 101.515 404.062 102.062L454.34 143.889C455.491 144.847 455.925 146.421 455.426 147.834L447.762 169.556C447.264 170.969 445.938 171.922 444.44 171.945L379.047 172.96C378.192 172.973 377.359 172.68 376.701 172.132L326.424 130.306C325.272 129.348 324.838 127.774 325.337 126.361L333.001 104.639Z" fill="url(#paint6_linear)"/>
<path fill-rule="evenodd" clip-rule="evenodd" d="M450.604 140.78L454.34 143.889C455.492 144.847 455.925 146.421 455.427 147.833L447.762 169.556C447.264 170.969 445.939 171.922 444.441 171.945L379.048 172.96C378.62 172.967 378.198 172.896 377.8 172.756L395.893 121.477L450.604 140.78Z" fill="url(#paint7_linear)"/>
<path fill-rule="evenodd" clip-rule="evenodd" d="M404.062 102.063L454.34 143.889C455.094 144.517 455.541 145.409 455.618 146.348C454.969 147.031 454.061 147.445 453.079 147.461L387.686 148.475C386.831 148.488 385.998 148.195 385.34 147.647L335.063 105.821C334.308 105.193 333.861 104.301 333.784 103.362C334.433 102.68 335.341 102.265 336.323 102.25L401.716 101.235C402.572 101.222 403.404 101.515 404.062 102.063Z" fill="url(#paint8_linear)"/>
<path fill-rule="evenodd" clip-rule="evenodd" d="M398.903 116L421.949 134.988C422.295 135.273 422.501 135.677 422.539 136.101C422.243 136.407 421.83 136.593 421.381 136.598L391.522 136.919C391.132 136.923 390.751 136.789 390.449 136.54L367.403 117.553C367.057 117.267 366.851 116.864 366.814 116.44C367.109 116.133 367.523 115.948 367.971 115.943L397.83 115.622C398.221 115.618 398.601 115.752 398.903 116Z" fill="url(#paint9_linear)"/>
<path fill-rule="evenodd" clip-rule="evenodd" d="M397.949 118.5L418.198 135.197C418.502 135.448 418.683 135.803 418.715 136.176C418.456 136.446 418.092 136.609 417.698 136.614L391.454 136.908C391.111 136.911 390.776 136.793 390.511 136.575L370.262 119.877C369.958 119.627 369.778 119.271 369.745 118.898C370.005 118.628 370.368 118.465 370.762 118.461L397.006 118.167C397.35 118.163 397.684 118.281 397.949 118.5Z" fill="#BEEFFA"/>
<g filter="url(#filter2_f)">
<circle cx="302.009" cy="103.354" r="8.59511" transform="rotate(19.4342 302.009 103.354)" fill="white"/>
</g>
<g filter="url(#filter3_f)">
<circle cx="302.008" cy="103.355" r="4.01105" transform="rotate(19.4342 302.008 103.355)" fill="white"/>
</g>
<ellipse cx="373.86" cy="177.196" rx="102.738" ry="31.8959" transform="rotate(42.4342 373.86 177.196)" stroke="url(#paint10_linear)" stroke-width="2.14878" stroke-linecap="round" stroke-linejoin="round"/>
<ellipse cx="371.104" cy="176.936" rx="102.738" ry="31.8959" transform="rotate(1.43418 371.104 176.936)" stroke="url(#paint11_linear)" stroke-width="2.14878" stroke-linecap="round" stroke-linejoin="round"/>
<ellipse cx="328.039" cy="257.514" rx="188.319" ry="63.7918" transform="rotate(19.4342 328.039 257.514)" stroke="url(#paint12_linear)" stroke-width="2.14878" stroke-linecap="round" stroke-linejoin="round"/>
<path d="M161.635 181.998L95.8872 136.76" stroke="url(#paint13_linear)" stroke-width="2.14878" stroke-linecap="round" stroke-linejoin="round"/>
<path d="M501.834 329.047L569.982 366.619" stroke="url(#paint14_linear)" stroke-width="2.14878" stroke-linecap="round" stroke-linejoin="round"/>
<g filter="url(#filter4_f)">
<circle cx="502.411" cy="329.172" r="8.59511" transform="rotate(19.4342 502.411 329.172)" fill="white"/>
</g>
<g filter="url(#filter5_f)">
<circle cx="502.41" cy="329.173" r="4.01105" transform="rotate(19.4342 502.41 329.173)" fill="white"/>
</g>
<g filter="url(#filter6_f)">
<circle cx="163.131" cy="180.663" r="8.59511" transform="rotate(19.4342 163.131 180.663)" fill="white"/>
</g>
<g filter="url(#filter7_f)">
<circle cx="163.132" cy="180.663" r="4.01105" transform="rotate(19.4342 163.132 180.663)" fill="white"/>
</g>
<path d="M202.964 326.832L257.162 295.286" stroke="url(#paint15_linear)" stroke-width="2.14878" stroke-linecap="round" stroke-linejoin="round"/>
<g filter="url(#filter8_f)">
<circle cx="256.512" cy="295.582" r="8.59511" transform="rotate(19.4342 256.512 295.582)" fill="white"/>
</g>
<g filter="url(#filter9_f)">
<circle cx="256.513" cy="295.582" r="4.01105" transform="rotate(19.4342 256.513 295.582)" fill="white"/>
</g>
<ellipse cx="333.15" cy="273.559" rx="265.072" ry="106.32" transform="rotate(19.4342 333.15 273.559)" stroke="url(#paint16_linear)" stroke-width="2.14878" stroke-linecap="round" stroke-linejoin="round"/>
<ellipse cx="580.177" cy="373.112" rx="32.5008" ry="25.6873" transform="rotate(19.4342 580.177 373.112)" fill="url(#paint17_linear)"/>
<ellipse cx="581.963" cy="367.355" rx="32.5008" ry="25.6873" transform="rotate(19.4342 581.963 367.355)" fill="url(#paint18_linear)"/>
<ellipse cx="582.355" cy="366.243" rx="19.6971" ry="16.1158" transform="rotate(19.4342 582.355 366.243)" fill="url(#paint19_linear)"/>
<path d="M576.993 381.442C587.252 385.061 597.968 381.191 600.93 372.798C601.13 372.23 601.29 371.655 601.411 371.077C599.52 365.822 594.788 361.131 588.341 358.856C578.082 355.236 567.365 359.106 564.404 367.5C564.203 368.068 564.044 368.642 563.923 369.22C565.814 374.476 570.546 379.167 576.993 381.442Z" fill="#BEEFFA"/>
<path fill-rule="evenodd" clip-rule="evenodd" d="M583.141 382.519C594.102 382.495 603.137 375.803 603.508 367.508L603.521 367.024L603.577 361.548L603.533 349.322L603.554 319.384L603.548 309.211L550.161 317.985L553.58 329.834L555.705 337.28L557.738 344.492L558.866 348.548L560.253 353.622L561.276 357.463L561.923 359.977L562.376 361.801L562.625 362.848L562.919 364.163L563.091 365.026L563.163 365.443L563.198 365.678L563.222 365.879L563.239 366.118L563.239 366.18C563.083 374.618 572.043 382.544 583.141 382.519Z" fill="url(#paint20_linear)"/>
<path fill-rule="evenodd" clip-rule="evenodd" d="M610.366 340.886C609.421 342.007 607.746 342.15 606.624 341.205L600.845 336.337C597.75 338.658 594.29 340.446 590.606 341.627L591.251 349.164C591.376 350.625 590.292 351.911 588.832 352.035L577.763 352.981C576.302 353.106 575.017 352.023 574.892 350.562L574.247 343.025C570.423 342.484 566.715 341.308 563.277 339.547L558.4 345.336C557.455 346.457 555.78 346.6 554.659 345.655L546.15 338.487C545.028 337.543 544.35 327.979 544.35 327.979L550.712 328.952C548.392 325.863 546.603 322.409 545.42 318.731L537.883 319.375C536.422 319.5 535.136 318.417 535.011 316.956L534.064 305.889C533.939 304.428 535.022 303.143 536.483 303.018L544.021 302.374C544.56 298.544 545.735 294.83 547.498 291.388L541.718 286.518C540.596 285.573 539.588 275.282 539.588 275.282C539.588 275.282 551.171 273.022 552.292 273.967L558.073 278.837C561.166 276.515 564.626 274.727 568.309 273.546L567.664 266.009C567.539 264.549 568.622 263.263 570.083 263.138L581.153 262.191C582.614 262.067 583.9 263.15 584.025 264.61L584.669 272.147C588.493 272.693 592.199 273.871 595.635 275.634L600.512 269.845C601.457 268.724 612.454 269.586 612.454 269.586C612.454 269.586 614.027 279.313 613.082 280.434L608.2 286.229C610.52 289.315 612.31 292.766 613.496 296.441L621.034 295.797C622.495 295.672 623.78 296.755 623.905 298.216L624.851 309.285C624.976 310.745 623.893 312.031 622.432 312.156L614.895 312.8C614.355 316.63 613.181 320.343 611.42 323.786L617.038 321.973C617.038 321.973 618.464 331.274 617.519 332.395L610.366 340.886ZM569.537 319.362C576.04 324.84 585.752 324.01 591.23 317.509C596.708 311.007 595.877 301.296 589.374 295.818C582.872 290.34 573.159 291.17 567.681 297.671C562.203 304.173 563.034 313.884 569.537 319.362Z" fill="url(#paint21_linear)"/>
<path fill-rule="evenodd" clip-rule="evenodd" d="M609.248 331.946C608.304 333.068 606.629 333.211 605.507 332.266L599.728 327.398C596.633 329.719 593.172 331.507 589.489 332.688L590.134 340.225C590.258 341.686 589.175 342.971 587.714 343.096L576.646 344.042C575.185 344.167 573.9 343.084 573.775 341.623L573.13 334.086C569.306 333.545 565.598 332.369 562.16 330.608L557.283 336.397C556.338 337.518 554.663 337.661 553.542 336.716L545.033 329.548C543.911 328.603 543.768 326.929 544.713 325.807L549.595 320.013C547.275 316.924 545.486 313.469 544.303 309.792L536.765 310.436C535.305 310.561 534.019 309.478 533.894 308.017L532.947 296.95C532.822 295.489 533.905 294.203 535.366 294.079L542.903 293.435C543.443 289.604 544.618 285.891 546.381 282.448L540.601 277.579C539.479 276.634 539.336 274.959 540.281 273.838L547.434 265.348C548.379 264.226 550.054 264.083 551.175 265.028L556.956 269.898C560.049 267.576 563.509 265.788 567.192 264.607L566.547 257.07C566.422 255.609 567.505 254.324 568.966 254.199L580.036 253.252C581.497 253.127 582.782 254.21 582.908 255.671L583.552 263.207C587.376 263.753 591.082 264.932 594.518 266.694L599.395 260.906C600.339 259.785 602.014 259.642 603.136 260.586L611.645 267.754C612.766 268.699 612.91 270.374 611.965 271.495L607.083 277.29C609.403 280.376 611.193 283.827 612.379 287.502L619.917 286.858C621.378 286.733 622.663 287.816 622.788 289.277L623.734 300.345C623.859 301.806 622.776 303.092 621.315 303.216L613.778 303.861C613.238 307.691 612.064 311.404 610.302 314.847L616.082 319.715C617.203 320.66 617.347 322.335 616.402 323.456L609.248 331.946ZM568.419 310.423C574.922 315.901 584.634 315.072 590.112 308.57C595.59 302.068 594.759 292.357 588.257 286.879C581.754 281.401 572.042 282.231 566.563 288.732C561.086 295.234 561.916 304.946 568.419 310.423Z" fill="url(#paint22_linear)"/>
<ellipse cx="200.382" cy="339.09" rx="32.5008" ry="25.6873" transform="rotate(-2.81857 200.382 339.09)" fill="url(#paint23_linear)"/>
<ellipse cx="199.678" cy="330.854" rx="32.5008" ry="25.6873" transform="rotate(-2.81857 199.678 330.854)" fill="url(#paint24_linear)"/>
<ellipse cx="199.619" cy="329.678" rx="19.6971" ry="16.1158" transform="rotate(-2.81857 199.619 329.678)" fill="url(#paint25_linear)"/>
<path d="M200.411 345.775C211.276 345.24 219.73 337.6 219.292 328.71C219.262 328.108 219.193 327.516 219.085 326.935C215.345 322.787 209.189 320.237 202.361 320.573C191.495 321.108 183.042 328.749 183.48 337.638C183.51 338.24 183.579 338.832 183.687 339.413C187.427 343.561 193.583 346.111 200.411 345.775Z" fill="#BEEFFA"/>
<path d="M219.676 322.838C217.258 338.877 216.645 340.27 206.51 344.444C196.248 348.67 184.954 344.726 181.903 336.858L151.231 280.722L231.549 271.772L234.056 280.497L219.676 322.838Z" fill="url(#paint26_linear)"/>
<path fill-rule="evenodd" clip-rule="evenodd" d="M189.4 247.611C207.24 245.558 223.413 251.485 231.084 261.67L234.036 261.311L235.493 271.793C235.546 272.121 235.592 272.451 235.63 272.783C237.543 289.404 219.947 305.082 196.328 307.8C172.945 310.492 152.425 299.473 150.161 283.125L150.096 282.611L148.605 271.693L151.771 271.307C156.719 259.4 171.289 249.695 189.4 247.611Z" fill="url(#paint27_linear)"/>
<ellipse cx="191.378" cy="266.968" rx="43.0486" ry="30.2935" transform="rotate(-6.56582 191.378 266.968)" fill="url(#paint28_linear)"/>
<path fill-rule="evenodd" clip-rule="evenodd" d="M171.524 286.15L183.923 252.508C184.325 251.415 184.527 250.868 184.95 250.798C185.374 250.728 185.734 251.182 186.456 252.089L189.78 256.27C191.434 258.351 192.261 259.392 193.371 259.407C194.48 259.421 195.337 258.403 197.052 256.366L204.987 246.936C206.237 245.45 206.863 244.707 207.183 244.898C207.503 245.089 207.165 246.004 206.49 247.834L196.452 275.021C195.754 276.912 195.405 277.858 194.631 278.067C193.857 278.277 193.093 277.633 191.564 276.345L187.475 272.956C186.429 272.089 184.885 272.212 183.99 273.233L172.267 286.602C171.661 287.298 171.358 287.645 171.201 287.55C171.044 287.454 171.204 287.02 171.524 286.15Z" fill="url(#paint29_linear)"/>
<ellipse cx="112.952" cy="151.015" rx="32.5008" ry="25.6873" transform="rotate(39.9525 112.952 151.015)" fill="url(#paint30_linear)"/>
<ellipse cx="118.026" cy="144.491" rx="32.5008" ry="25.6873" transform="rotate(39.9525 118.026 144.491)" fill="url(#paint31_linear)"/>
<ellipse cx="118.783" cy="143.588" rx="19.6971" ry="16.1158" transform="rotate(39.9525 118.783 143.588)" fill="url(#paint32_linear)"/>
<path d="M108.434 155.943C116.773 162.928 128.166 163.06 133.882 156.237C134.269 155.775 134.62 155.293 134.935 154.794C135.006 149.209 132.219 143.157 126.978 138.767C118.639 131.781 107.246 131.649 101.53 138.472C101.143 138.934 100.792 139.416 100.477 139.915C100.406 145.5 103.193 151.552 108.434 155.943Z" fill="#BEEFFA"/>
<path d="M138.151 152.187C125.484 162.319 124.089 162.926 113.814 159.107C103.411 155.24 97.7985 144.676 100.902 136.828L124.59 73.6005L182.096 117.176L178.012 125.283L138.151 152.187Z" fill="url(#paint33_linear)"/>
<path fill-rule="evenodd" clip-rule="evenodd" d="M135.557 64.6125L168.124 59.7501C168.429 59.7045 168.732 59.7544 168.989 59.8927L196.505 75.7426C197.024 76.0617 197.273 76.6934 197.12 77.3084L191.028 101.438C187.064 116.644 174.156 130.484 158.813 133.743L146.915 136.11L138.669 133.405C138.669 133.405 123.927 100.579 128.002 87.1166L134.266 65.683C134.423 65.1356 134.943 64.7039 135.557 64.6125Z" fill="url(#paint34_linear)"/>
<path fill-rule="evenodd" clip-rule="evenodd" d="M128.85 60.7327L161.417 55.8703C161.722 55.8247 162.025 55.8746 162.282 56.0129L189.798 71.8628C190.318 72.1819 190.566 72.8136 190.414 73.4286L184.321 97.5585C180.357 112.764 166.67 128.448 151.326 131.707L139.429 134.074L130.779 125.677C119.643 115.301 117.22 96.6993 121.295 83.2367L127.56 61.8032C127.716 61.2558 128.236 60.8241 128.85 60.7327Z" fill="url(#paint35_linear)"/>
<path fill-rule="evenodd" clip-rule="evenodd" d="M154.807 76.756C158.225 77.4655 160.255 80.6164 159.434 83.865L159.372 84.0918L158.046 88.6077L160.638 89.3149C161.783 89.6274 162.44 90.8038 162.106 91.9425L157.392 107.188C157.058 108.327 155.886 108.904 154.774 108.477L137.666 101.912C136.554 101.486 135.891 100.331 136.184 99.3333L140.411 85.7467C140.704 84.7489 141.869 84.1934 143.014 84.5059L145.606 85.2131L146.836 81.0252C147.72 78.0115 151.148 76.1194 154.569 76.7107L154.807 76.756ZM153.956 79.6573C152.278 79.2782 150.558 80.154 150.024 81.626L149.97 81.792L148.716 86.0618L154.936 87.7591L156.238 83.3252C156.683 81.8093 155.834 80.2837 154.317 79.7599L154.139 79.7041L153.956 79.6573Z" fill="url(#paint36_linear)"/>
<path fill-rule="evenodd" clip-rule="evenodd" d="M150.378 91.8587C151.517 92.193 152.169 93.387 151.835 94.5257C151.581 95.3906 150.831 95.9748 149.986 96.0592L149.098 100.224L147.036 99.6188L148.492 95.6468C147.79 95.1256 147.45 94.2035 147.711 93.3152C148.045 92.1765 149.239 91.5244 150.378 91.8587Z" fill="url(#paint37_linear)"/>
<defs>
<filter id="filter0_f" x="61.952" y="205.928" width="67.038" height="67.038" filterUnits="userSpaceOnUse" color-interpolation-filters="sRGB">
<feFlood flood-opacity="0" result="BackgroundImageFix"/>
<feBlend mode="normal" in="SourceGraphic" in2="BackgroundImageFix" result="shape"/>
<feGaussianBlur stdDeviation="12.4608" result="effect1_foregroundBlur"/>
</filter>
<filter id="filter1_f" x="85.2286" y="229.205" width="20.485" height="20.485" filterUnits="userSpaceOnUse" color-interpolation-filters="sRGB">
<feFlood flood-opacity="0" result="BackgroundImageFix"/>
<feBlend mode="normal" in="SourceGraphic" in2="BackgroundImageFix" result="shape"/>
<feGaussianBlur stdDeviation="3.11519" result="effect1_foregroundBlur"/>
</filter>
<filter id="filter2_f" x="268.49" y="69.8353" width="67.038" height="67.038" filterUnits="userSpaceOnUse" color-interpolation-filters="sRGB">
<feFlood flood-opacity="0" result="BackgroundImageFix"/>
<feBlend mode="normal" in="SourceGraphic" in2="BackgroundImageFix" result="shape"/>
<feGaussianBlur stdDeviation="12.4608" result="effect1_foregroundBlur"/>
</filter>
<filter id="filter3_f" x="291.766" y="93.1124" width="20.485" height="20.485" filterUnits="userSpaceOnUse" color-interpolation-filters="sRGB">
<feFlood flood-opacity="0" result="BackgroundImageFix"/>
<feBlend mode="normal" in="SourceGraphic" in2="BackgroundImageFix" result="shape"/>
<feGaussianBlur stdDeviation="3.11519" result="effect1_foregroundBlur"/>
</filter>
<filter id="filter4_f" x="468.891" y="295.653" width="67.038" height="67.038" filterUnits="userSpaceOnUse" color-interpolation-filters="sRGB">
<feFlood flood-opacity="0" result="BackgroundImageFix"/>
<feBlend mode="normal" in="SourceGraphic" in2="BackgroundImageFix" result="shape"/>
<feGaussianBlur stdDeviation="12.4608" result="effect1_foregroundBlur"/>
</filter>
<filter id="filter5_f" x="492.168" y="318.93" width="20.485" height="20.485" filterUnits="userSpaceOnUse" color-interpolation-filters="sRGB">
<feFlood flood-opacity="0" result="BackgroundImageFix"/>
<feBlend mode="normal" in="SourceGraphic" in2="BackgroundImageFix" result="shape"/>
<feGaussianBlur stdDeviation="3.11519" result="effect1_foregroundBlur"/>
</filter>
<filter id="filter6_f" x="129.612" y="147.144" width="67.038" height="67.038" filterUnits="userSpaceOnUse" color-interpolation-filters="sRGB">
<feFlood flood-opacity="0" result="BackgroundImageFix"/>
<feBlend mode="normal" in="SourceGraphic" in2="BackgroundImageFix" result="shape"/>
<feGaussianBlur stdDeviation="12.4608" result="effect1_foregroundBlur"/>
</filter>
<filter id="filter7_f" x="152.889" y="170.421" width="20.485" height="20.485" filterUnits="userSpaceOnUse" color-interpolation-filters="sRGB">
<feFlood flood-opacity="0" result="BackgroundImageFix"/>
<feBlend mode="normal" in="SourceGraphic" in2="BackgroundImageFix" result="shape"/>
<feGaussianBlur stdDeviation="3.11519" result="effect1_foregroundBlur"/>
</filter>
<filter id="filter8_f" x="222.993" y="262.063" width="67.038" height="67.038" filterUnits="userSpaceOnUse" color-interpolation-filters="sRGB">
<feFlood flood-opacity="0" result="BackgroundImageFix"/>
<feBlend mode="normal" in="SourceGraphic" in2="BackgroundImageFix" result="shape"/>
<feGaussianBlur stdDeviation="12.4608" result="effect1_foregroundBlur"/>
</filter>
<filter id="filter9_f" x="246.271" y="285.339" width="20.485" height="20.485" filterUnits="userSpaceOnUse" color-interpolation-filters="sRGB">
<feFlood flood-opacity="0" result="BackgroundImageFix"/>
<feBlend mode="normal" in="SourceGraphic" in2="BackgroundImageFix" result="shape"/>
<feGaussianBlur stdDeviation="3.11519" result="effect1_foregroundBlur"/>
</filter>
<linearGradient id="paint0_linear" x1="288.943" y1="284.151" x2="328.764" y2="314.37" gradientUnits="userSpaceOnUse">
<stop stop-color="#16E0F4"/>
<stop offset="1" stop-color="#4A90E1"/>
</linearGradient>
<linearGradient id="paint1_linear" x1="315.481" y1="263.062" x2="330.537" y2="318.393" gradientUnits="userSpaceOnUse">
<stop stop-color="#3EE2F3"/>
<stop offset="1" stop-color="#07387D"/>
</linearGradient>
<linearGradient id="paint2_linear" x1="268.374" y1="234.224" x2="381.574" y2="306.504" gradientUnits="userSpaceOnUse">
<stop stop-color="#02E8FF"/>
<stop offset="1" stop-color="#4A90E1"/>
</linearGradient>
<linearGradient id="paint3_linear" x1="272.87" y1="219.913" x2="271.575" y2="256.038" gradientUnits="userSpaceOnUse">
<stop stop-color="#3EE2F3"/>
<stop offset="1" stop-color="#07387D"/>
</linearGradient>
<linearGradient id="paint4_linear" x1="343.656" y1="132.251" x2="341.734" y2="247.463" gradientUnits="userSpaceOnUse">
<stop stop-color="white"/>
<stop offset="1" stop-color="#E3F7FF"/>
</linearGradient>
<linearGradient id="paint5_linear" x1="339.018" y1="140.914" x2="299.355" y2="253.327" gradientUnits="userSpaceOnUse">
<stop stop-color="white" stop-opacity="0.01"/>
<stop offset="1" stop-color="white" stop-opacity="0.27496"/>
</linearGradient>
<linearGradient id="paint6_linear" x1="345.599" y1="150.319" x2="377.456" y2="174.494" gradientUnits="userSpaceOnUse">
<stop stop-color="#16E0F4"/>
<stop offset="1" stop-color="#4A90E1"/>
</linearGradient>
<linearGradient id="paint7_linear" x1="366.829" y1="133.447" x2="378.875" y2="177.712" gradientUnits="userSpaceOnUse">
<stop stop-color="#3EE2F3"/>
<stop offset="1" stop-color="#07387D"/>
</linearGradient>
<linearGradient id="paint8_linear" x1="329.144" y1="110.377" x2="419.704" y2="168.201" gradientUnits="userSpaceOnUse">
<stop stop-color="#02E8FF"/>
<stop offset="1" stop-color="#4A90E1"/>
</linearGradient>
<linearGradient id="paint9_linear" x1="347.557" y1="106.926" x2="346.764" y2="128.822" gradientUnits="userSpaceOnUse">
<stop stop-color="#3EE2F3"/>
<stop offset="1" stop-color="#07387D"/>
</linearGradient>
<linearGradient id="paint10_linear" x1="259.348" y1="145.3" x2="259.348" y2="216.402" gradientUnits="userSpaceOnUse">
<stop stop-color="white" stop-opacity="0.01"/>
<stop offset="1" stop-color="#C6DAFF"/>
</linearGradient>
<linearGradient id="paint11_linear" x1="256.591" y1="145.04" x2="256.591" y2="216.142" gradientUnits="userSpaceOnUse">
<stop stop-color="white" stop-opacity="0.01"/>
<stop offset="1" stop-color="#C6DAFF"/>
</linearGradient>
<linearGradient id="paint12_linear" x1="118.139" y1="193.722" x2="118.139" y2="335.927" gradientUnits="userSpaceOnUse">
<stop stop-color="white" stop-opacity="0.01"/>
<stop offset="1" stop-color="#C6DAFF"/>
</linearGradient>
<linearGradient id="paint13_linear" x1="90.0373" y1="137.892" x2="83.3513" y2="162.023" gradientUnits="userSpaceOnUse">
<stop stop-color="#616367"/>
<stop offset="1" stop-color="#6B6F74"/>
</linearGradient>
<linearGradient id="paint14_linear" x1="542.979" y1="348.388" x2="540.642" y2="357.069" gradientUnits="userSpaceOnUse">
<stop stop-color="#8A909D"/>
<stop offset="1" stop-color="#C6DAFF"/>
</linearGradient>
<linearGradient id="paint15_linear" x1="216.668" y1="280.999" x2="198.948" y2="331.222" gradientUnits="userSpaceOnUse">
<stop stop-color="#B8C8E4"/>
<stop offset="1" stop-color="#C6DAFF"/>
</linearGradient>
<linearGradient id="paint16_linear" x1="18.1299" y1="151.54" x2="18.1299" y2="404.247" gradientUnits="userSpaceOnUse">
<stop stop-color="white" stop-opacity="0.01"/>
<stop offset="1" stop-color="#C6DAFF"/>
</linearGradient>
<linearGradient id="paint17_linear" x1="521.502" y1="404.952" x2="617.427" y2="404.952" gradientUnits="userSpaceOnUse">
<stop stop-color="#3EE2F3"/>
<stop offset="1" stop-color="#07387D"/>
</linearGradient>
<linearGradient id="paint18_linear" x1="548.435" y1="375.796" x2="603.24" y2="382.011" gradientUnits="userSpaceOnUse">
<stop stop-color="#3DEDFF"/>
<stop offset="1" stop-color="#4A90E1"/>
</linearGradient>
<linearGradient id="paint19_linear" x1="548.442" y1="362.55" x2="563.772" y2="385.256" gradientUnits="userSpaceOnUse">
<stop stop-color="#3EE2F3"/>
<stop offset="1" stop-color="#07387D"/>
</linearGradient>
<linearGradient id="paint20_linear" x1="551.315" y1="334.822" x2="560.023" y2="375.246" gradientUnits="userSpaceOnUse">
<stop stop-color="white" stop-opacity="0.01"/>
<stop offset="1" stop-color="white" stop-opacity="0.27496"/>
</linearGradient>
<linearGradient id="paint21_linear" x1="506.262" y1="269.367" x2="530.676" y2="337.67" gradientUnits="userSpaceOnUse">
<stop stop-color="#3EE2F3"/>
<stop offset="1" stop-color="#07387D"/>
</linearGradient>
<linearGradient id="paint22_linear" x1="530.38" y1="297.173" x2="598.953" y2="328.503" gradientUnits="userSpaceOnUse">
<stop stop-color="#3DEDFF"/>
<stop offset="1" stop-color="#4A90E1"/>
</linearGradient>
<linearGradient id="paint23_linear" x1="141.707" y1="370.931" x2="237.631" y2="370.931" gradientUnits="userSpaceOnUse">
<stop stop-color="#3EE2F3"/>
<stop offset="1" stop-color="#07387D"/>
</linearGradient>
<linearGradient id="paint24_linear" x1="166.15" y1="339.295" x2="220.954" y2="345.51" gradientUnits="userSpaceOnUse">
<stop stop-color="#3DEDFF"/>
<stop offset="1" stop-color="#4A90E1"/>
</linearGradient>
<linearGradient id="paint25_linear" x1="165.705" y1="325.985" x2="181.036" y2="348.691" gradientUnits="userSpaceOnUse">
<stop stop-color="#3EE2F3"/>
<stop offset="1" stop-color="#07387D"/>
</linearGradient>
<linearGradient id="paint26_linear" x1="158.992" y1="312.352" x2="182.359" y2="346.468" gradientUnits="userSpaceOnUse">
<stop stop-color="white" stop-opacity="0.01"/>
<stop offset="1" stop-color="white" stop-opacity="0.27496"/>
</linearGradient>
<linearGradient id="paint27_linear" x1="111.046" y1="310.996" x2="239.591" y2="318.71" gradientUnits="userSpaceOnUse">
<stop stop-color="#3EE2F3"/>
<stop offset="1" stop-color="#07387D"/>
</linearGradient>
<linearGradient id="paint28_linear" x1="146.969" y1="276.922" x2="219.32" y2="286.137" gradientUnits="userSpaceOnUse">
<stop stop-color="#3DEDFF"/>
<stop offset="1" stop-color="#4A90E1"/>
</linearGradient>
<linearGradient id="paint29_linear" x1="152.819" y1="253.194" x2="180.785" y2="282.724" gradientUnits="userSpaceOnUse">
<stop stop-color="#3EE2F3"/>
<stop offset="1" stop-color="#07387D"/>
</linearGradient>
<linearGradient id="paint30_linear" x1="54.2775" y1="182.855" x2="150.202" y2="182.855" gradientUnits="userSpaceOnUse">
<stop stop-color="#3EE2F3"/>
<stop offset="1" stop-color="#07387D"/>
</linearGradient>
<linearGradient id="paint31_linear" x1="84.4983" y1="152.932" x2="139.303" y2="159.147" gradientUnits="userSpaceOnUse">
<stop stop-color="#3DEDFF"/>
<stop offset="1" stop-color="#4A90E1"/>
</linearGradient>
<linearGradient id="paint32_linear" x1="84.8695" y1="139.894" x2="100.2" y2="162.6" gradientUnits="userSpaceOnUse">
<stop stop-color="#3EE2F3"/>
<stop offset="1" stop-color="#07387D"/>
</linearGradient>
<linearGradient id="paint33_linear" x1="100.725" y1="103.281" x2="94.7109" y2="144.192" gradientUnits="userSpaceOnUse">
<stop stop-color="white" stop-opacity="0.01"/>
<stop offset="1" stop-color="white" stop-opacity="0.27496"/>
</linearGradient>
<linearGradient id="paint34_linear" x1="101.294" y1="92.9085" x2="142.012" y2="134.131" gradientUnits="userSpaceOnUse">
<stop stop-color="#3EE2F3"/>
<stop offset="1" stop-color="#07387D"/>
</linearGradient>
<linearGradient id="paint35_linear" x1="119.04" y1="109.585" x2="180.676" y2="110.879" gradientUnits="userSpaceOnUse">
<stop stop-color="#3DEDFF"/>
<stop offset="1" stop-color="#4A90E1"/>
</linearGradient>
<linearGradient id="paint36_linear" x1="128.307" y1="77.1555" x2="142.379" y2="100.952" gradientUnits="userSpaceOnUse">
<stop stop-color="#3EE2F3"/>
<stop offset="1" stop-color="#07387D"/>
</linearGradient>
<linearGradient id="paint37_linear" x1="146.682" y1="96.5804" x2="152.97" y2="98.141" gradientUnits="userSpaceOnUse">
<stop stop-color="#3DEDFF"/>
<stop offset="1" stop-color="#4A90E1"/>
</linearGradient>
</defs>
</svg>
