<svg width="16" height="16" viewBox="0 0 16 16" fill="none" xmlns="http://www.w3.org/2000/svg">
<path d="M15.3332 3.42061C14.784 3.66555 14.2015 3.82624 13.605 3.89734C14.2333 3.51887 14.7034 2.92332 14.9279 2.22168C14.3373 2.57464 13.6911 2.82318 13.0173 2.95653C12.7357 2.6542 12.3955 2.4133 12.0177 2.24876C11.6399 2.08422 11.2326 1.99955 10.821 2C9.15932 2 7.81194 3.35618 7.81194 5.02953C7.81194 5.26675 7.83861 5.49821 7.89003 5.72008C5.38918 5.59371 3.17212 4.3875 1.68799 2.5544C1.42039 3.01676 1.27978 3.54247 1.28058 4.0776C1.28018 4.57639 1.40217 5.06755 1.63569 5.50745C1.86922 5.94734 2.20706 6.32235 2.61919 6.59914C2.14144 6.58386 1.67421 6.45395 1.25639 6.22021C1.256 6.23287 1.256 6.24533 1.256 6.25837C1.256 7.72577 2.29311 8.9502 3.66943 9.22884C3.22626 9.34963 2.7616 9.36734 2.31063 9.28062C2.69347 10.484 3.80467 11.3601 5.12138 11.3847C4.0555 12.2268 2.73928 12.6836 1.38438 12.6816C1.14153 12.6816 0.902114 12.6674 0.666504 12.6392C2.04232 13.5292 3.64356 14.0016 5.2789 14C10.8135 14 13.8401 9.38398 13.8401 5.38104C13.8401 5.24987 13.837 5.1189 13.8313 4.98869C14.4207 4.56026 14.9293 4.02922 15.3332 3.42061Z" fill="#BFBFBF"/>
</svg>
