<svg width="254" height="254" viewBox="0 0 254 254" fill="none" xmlns="http://www.w3.org/2000/svg">
<circle cx="127" cy="127" r="127" fill="url(#paint0_linear)"/>
<path d="M65.8435 209.208L100.529 71.7182C101.48 67.9478 101.956 66.0631 103.34 65.6791C104.724 65.2955 106.086 66.6714 108.808 69.4236L126.585 87.3905C132.832 93.7042 135.955 96.8606 139.651 96.5137C143.347 96.1667 145.836 92.4831 150.814 85.1158L180.886 40.6065C184.518 35.231 186.334 32.5433 187.468 33.0636C188.602 33.5838 187.804 36.7388 186.208 43.0488L157.379 157.034C155.73 163.555 154.905 166.815 152.406 167.786C149.906 168.757 147.133 166.893 141.589 163.166L115.614 145.707C115.051 145.328 114.769 145.139 114.475 145.195C114.182 145.249 113.986 145.528 113.596 146.085L68.4751 210.443C66.7063 212.966 65.8222 214.227 65.2656 213.966C64.7091 213.705 65.0872 212.206 65.8435 209.208Z" fill="url(#paint1_linear)" fill-opacity="0.1"/>
<defs>
<linearGradient id="paint0_linear" x1="2.62758e-05" y1="-79.5422" x2="268.898" y2="3.90655" gradientUnits="userSpaceOnUse">
<stop stop-color="#8A9EFF"/>
<stop offset="0.244685" stop-color="#ACB2FD"/>
<stop offset="0.537737" stop-color="#685CFF"/>
<stop offset="0.862371" stop-color="#3C26FD"/>
<stop offset="0.976059" stop-color="#1D06EB"/>
</linearGradient>
<linearGradient id="paint1_linear" x1="198.734" y1="32.6097" x2="58.4117" y2="220.618" gradientUnits="userSpaceOnUse">
<stop stop-color="white"/>
<stop offset="1" stop-color="white" stop-opacity="0.63"/>
</linearGradient>
</defs>
</svg>
