<svg width="16" height="16" viewBox="0 0 16 16" fill="none" xmlns="http://www.w3.org/2000/svg">
<path d="M15.6745 3.78186C15.5835 3.44005 15.4055 3.12833 15.1584 2.87772C14.9112 2.62712 14.6035 2.44637 14.2659 2.35346C13.014 2.00567 8.00554 2.00001 8.00554 2.00001C8.00554 2.00001 2.99788 1.99434 1.74517 2.32677C1.40775 2.42395 1.10068 2.60726 0.85345 2.85909C0.60622 3.11093 0.427127 3.42284 0.333365 3.76487C0.00319905 5.0315 1.17129e-06 7.65858 1.17129e-06 7.65858C1.17129e-06 7.65858 -0.00319655 10.2986 0.324572 11.5523C0.508442 12.2455 1.04806 12.793 1.73397 12.9799C2.99868 13.3277 7.99355 13.3333 7.99355 13.3333C7.99355 13.3333 13.002 13.339 14.2539 13.0074C14.5917 12.9146 14.8997 12.7343 15.1474 12.4842C15.3952 12.2341 15.5741 11.9229 15.6665 11.5814C15.9975 10.3156 15.9999 7.68931 15.9999 7.68931C15.9999 7.68931 16.0159 5.04849 15.6745 3.78186ZM6.40347 10.0923L6.40747 5.23937L10.5701 7.6699L6.40347 10.0923Z" fill="#BFBFBF"/>
</svg>
